<?xml version="1.0" encoding="UTF-8"?>
<svg viewBox="0 0 800 450" xmlns="http://www.w3.org/2000/svg">
    <!-- Background -->
    <rect width="800" height="450" fill="#f8f9fa" rx="10" ry="10"/>
    
    <!-- Title -->
    <text x="400" y="30" font-family="Arial, sans-serif" font-size="20" font-weight="bold" text-anchor="middle" fill="#333">Adobe Consolidation: Release-Cycle to Continuous Delivery</text>
    
    <!-- Before and After Labels -->
    <text x="200" y="70" font-family="Arial, sans-serif" font-size="18" font-weight="bold" text-anchor="middle" fill="#555">BEFORE: Release-Cycle Oriented</text>
    <text x="600" y="70" font-family="Arial, sans-serif" font-size="18" font-weight="bold" text-anchor="middle" fill="#555">AFTER: Continuous Delivery</text>
    
    <!-- Before Structure (Left Side) -->
    <!-- Leadership -->
    <rect x="125" y="100" width="150" height="40" rx="5" ry="5" fill="#FF0000" stroke="#CC0000" stroke-width="1" fill-opacity="0.7"/>
    <text x="200" y="125" font-family="Arial, sans-serif" font-size="14" font-weight="bold" text-anchor="middle" fill="white">Product Leadership</text>
    
    <line x1="200" y1="140" x2="200" y2="160" stroke="#666" stroke-width="2"/>
    <line x1="60" y1="160" x2="340" y2="160" stroke="#666" stroke-width="2"/>
    
    <!-- Product Teams -->
    <rect x="25" y="175" width="110" height="40" rx="5" ry="5" fill="#FF6666" stroke="#CC5353" stroke-width="1"/>
    <text x="80" y="195" font-family="Arial, sans-serif" font-size="10" font-weight="bold" text-anchor="middle" fill="white">Photoshop</text>
    <text x="80" y="210" font-family="Arial, sans-serif" font-size="10" text-anchor="middle" fill="white">Product Team</text>
    
    <rect x="145" y="175" width="110" height="40" rx="5" ry="5" fill="#FF6666" stroke="#CC5353" stroke-width="1"/>
    <text x="200" y="195" font-family="Arial, sans-serif" font-size="10" font-weight="bold" text-anchor="middle" fill="white">Illustrator</text>
    <text x="200" y="210" font-family="Arial, sans-serif" font-size="10" text-anchor="middle" fill="white">Product Team</text>
    
    <rect x="265" y="175" width="110" height="40" rx="5" ry="5" fill="#FF6666" stroke="#CC5353" stroke-width="1"/>
    <text x="320" y="195" font-family="Arial, sans-serif" font-size="10" font-weight="bold" text-anchor="middle" fill="white">InDesign</text>
    <text x="320" y="210" font-family="Arial, sans-serif" font-size="10" text-anchor="middle" fill="white">Product Team</text>
    
    <!-- Release Cycle Lines -->
    <line x1="80" y1="215" x2="80" y2="225" stroke="#666" stroke-width="1"/>
    <line x1="200" y1="215" x2="200" y2="225" stroke="#666" stroke-width="1"/>
    <line x1="320" y1="215" x2="320" y2="225" stroke="#666" stroke-width="1"/>
    
    <!-- Release Cycle Phases -->
    <rect x="25" y="225" width="350" height="30" rx="5" ry="5" fill="#FFCC99" stroke="#D4A980" stroke-width="1"/>
    <text x="200" y="245" font-family="Arial, sans-serif" font-size="10" font-weight="bold" text-anchor="middle" fill="#333">12-18 Month Release Cycle</text>
    
    <line x1="40" y1="255" x2="40" y2="265" stroke="#666" stroke-width="1"/>
    <line x1="120" y1="255" x2="120" y2="265" stroke="#666" stroke-width="1"/>
    <line x1="200" y1="255" x2="200" y2="265" stroke="#666" stroke-width="1"/>
    <line x1="280" y1="255" x2="280" y2="265" stroke="#666" stroke-width="1"/>
    <line x1="360" y1="255" x2="360" y2="265" stroke="#666" stroke-width="1"/>
    
    <!-- Release Cycle Teams -->
    <rect x="5" y="265" width="70" height="50" rx="5" ry="5" fill="#FFE6CC" stroke="#D4BEA8" stroke-width="1"/>
    <text x="40" y="285" font-family="Arial, sans-serif" font-size="10" font-weight="bold" text-anchor="middle" fill="#333">Planning</text>
    <text x="40" y="300" font-family="Arial, sans-serif" font-size="9" text-anchor="middle" fill="#333">(2-3 months)</text>
    
    <rect x="85" y="265" width="70" height="50" rx="5" ry="5" fill="#FFE6CC" stroke="#D4BEA8" stroke-width="1"/>
    <text x="120" y="285" font-family="Arial, sans-serif" font-size="10" font-weight="bold" text-anchor="middle" fill="#333">Development</text>
    <text x="120" y="300" font-family="Arial, sans-serif" font-size="9" text-anchor="middle" fill="#333">(6-8 months)</text>
    
    <rect x="165" y="265" width="70" height="50" rx="5" ry="5" fill="#FFE6CC" stroke="#D4BEA8" stroke-width="1"/>
    <text x="200" y="285" font-family="Arial, sans-serif" font-size="10" font-weight="bold" text-anchor="middle" fill="#333">Testing</text>
    <text x="200" y="300" font-family="Arial, sans-serif" font-size="9" text-anchor="middle" fill="#333">(2-3 months)</text>
    
    <rect x="245" y="265" width="70" height="50" rx="5" ry="5" fill="#FFE6CC" stroke="#D4BEA8" stroke-width="1"/>
    <text x="280" y="285" font-family="Arial, sans-serif" font-size="10" font-weight="bold" text-anchor="middle" fill="#333">Release</text>
    <text x="280" y="300" font-family="Arial, sans-serif" font-size="9" text-anchor="middle" fill="#333">(1 month)</text>
    
    <rect x="325" y="265" width="70" height="50" rx="5" ry="5" fill="#FFE6CC" stroke="#D4BEA8" stroke-width="1"/>
    <text x="360" y="285" font-family="Arial, sans-serif" font-size="10" font-weight="bold" text-anchor="middle" fill="#333">Support</text>
    <text x="360" y="300" font-family="Arial, sans-serif" font-size="9" text-anchor="middle" fill="#333">(ongoing)</text>
    
    <!-- Functional Departments -->
    <rect x="25" y="335" width="350" height="30" rx="5" ry="5" fill="#F8CECC" stroke="#D9B1AF" stroke-width="1"/>
    <text x="200" y="355" font-family="Arial, sans-serif" font-size="10" font-weight="bold" text-anchor="middle" fill="#333">Separate Functional Departments</text>
    
    <line x1="100" y1="365" x2="100" y2="375" stroke="#666" stroke-width="1"/>
    <line x1="200" y1="365" x2="200" y2="375" stroke="#666" stroke-width="1"/>
    <line x1="300" y1="365" x2="300" y2="375" stroke="#666" stroke-width="1"/>
    
    <rect x="50" y="375" width="100" height="30" rx="5" ry="5" fill="#FFE6E6" stroke="#E6D1D1" stroke-width="1"/>
    <text x="100" y="395" font-family="Arial, sans-serif" font-size="10" text-anchor="middle" fill="#333">Engineering</text>
    
    <rect x="150" y="375" width="100" height="30" rx="5" ry="5" fill="#FFE6E6" stroke="#E6D1D1" stroke-width="1"/>
    <text x="200" y="395" font-family="Arial, sans-serif" font-size="10" text-anchor="middle" fill="#333">QA &amp; Testing</text>
    
    <rect x="250" y="375" width="100" height="30" rx="5" ry="5" fill="#FFE6E6" stroke="#E6D1D1" stroke-width="1"/>
    <text x="300" y="395" font-family="Arial, sans-serif" font-size="10" text-anchor="middle" fill="#333">Product Management</text>
    
    <!-- After Structure (Right Side) -->
    <!-- Leadership -->
    <rect x="525" y="100" width="150" height="40" rx="5" ry="5" fill="#FF0000" stroke="#CC0000" stroke-width="1" fill-opacity="0.7"/>
    <text x="600" y="125" font-family="Arial, sans-serif" font-size="14" font-weight="bold" text-anchor="middle" fill="white">Product Leadership</text>
    
    <line x1="600" y1="140" x2="600" y2="160" stroke="#666" stroke-width="2"/>
    <line x1="460" y1="160" x2="740" y2="160" stroke="#666" stroke-width="2"/>
    
    <!-- Product Teams -->
    <rect x="425" y="175" width="110" height="40" rx="5" ry="5" fill="#FF6666" stroke="#CC5353" stroke-width="1"/>
    <text x="480" y="195" font-family="Arial, sans-serif" font-size="10" font-weight="bold" text-anchor="middle" fill="white">Photoshop</text>
    <text x="480" y="210" font-family="Arial, sans-serif" font-size="10" text-anchor="middle" fill="white">Product Team</text>
    
    <rect x="545" y="175" width="110" height="40" rx="5" ry="5" fill="#FF6666" stroke="#CC5353" stroke-width="1"/>
    <text x="600" y="195" font-family="Arial, sans-serif" font-size="10" font-weight="bold" text-anchor="middle" fill="white">Illustrator</text>
    <text x="600" y="210" font-family="Arial, sans-serif" font-size="10" text-anchor="middle" fill="white">Product Team</text>
    
    <rect x="665" y="175" width="110" height="40" rx="5" ry="5" fill="#FF6666" stroke="#CC5353" stroke-width="1"/>
    <text x="720" y="195" font-family="Arial, sans-serif" font-size="10" font-weight="bold" text-anchor="middle" fill="white">InDesign</text>
    <text x="720" y="210" font-family="Arial, sans-serif" font-size="10" text-anchor="middle" fill="white">Product Team</text>
    
    <!-- Continuous delivery approach -->
    <line x1="480" y1="215" x2="480" y2="225" stroke="#666" stroke-width="1"/>
    <line x1="600" y1="215" x2="600" y2="225" stroke="#666" stroke-width="1"/>
    <line x1="720" y1="215" x2="720" y2="225" stroke="#666" stroke-width="1"/>
    
    <!-- Cross-functional product teams -->
    <rect x="425" y="225" width="110" height="90" rx="5" ry="5" fill="#A7C942" stroke="#86A136" stroke-width="1"/>
    <text x="480" y="245" font-family="Arial, sans-serif" font-size="10" font-weight="bold" text-anchor="middle" fill="white">Photoshop</text>
    <text x="480" y="265" font-family="Arial, sans-serif" font-size="9" text-anchor="middle" fill="white">Cross-functional Team:</text>
    <text x="480" y="280" font-family="Arial, sans-serif" font-size="9" text-anchor="middle" fill="white">Dev, Design, QA,</text>
    <text x="480" y="295" font-family="Arial, sans-serif" font-size="9" text-anchor="middle" fill="white">Product, Support</text>
    
    <rect x="545" y="225" width="110" height="90" rx="5" ry="5" fill="#A7C942" stroke="#86A136" stroke-width="1"/>
    <text x="600" y="245" font-family="Arial, sans-serif" font-size="10" font-weight="bold" text-anchor="middle" fill="white">Illustrator</text>
    <text x="600" y="265" font-family="Arial, sans-serif" font-size="9" text-anchor="middle" fill="white">Cross-functional Team:</text>
    <text x="600" y="280" font-family="Arial, sans-serif" font-size="9" text-anchor="middle" fill="white">Dev, Design, QA,</text>
    <text x="600" y="295" font-family="Arial, sans-serif" font-size="9" text-anchor="middle" fill="white">Product, Support</text>
    
    <rect x="665" y="225" width="110" height="90" rx="5" ry="5" fill="#A7C942" stroke="#86A136" stroke-width="1"/>
    <text x="720" y="245" font-family="Arial, sans-serif" font-size="10" font-weight="bold" text-anchor="middle" fill="white">InDesign</text>
    <text x="720" y="265" font-family="Arial, sans-serif" font-size="9" text-anchor="middle" fill="white">Cross-functional Team:</text>
    <text x="720" y="280" font-family="Arial, sans-serif" font-size="9" text-anchor="middle" fill="white">Dev, Design, QA,</text>
    <text x="720" y="295" font-family="Arial, sans-serif" font-size="9" text-anchor="middle" fill="white">Product, Support</text>
    
    <!-- Continuous Delivery Pipeline -->
    <rect x="425" y="335" width="350" height="40" rx="5" ry="5" fill="#D5E8D4" stroke="#B3C5B3" stroke-width="1"/>
    <text x="600" y="352" font-family="Arial, sans-serif" font-size="12" font-weight="bold" text-anchor="middle" fill="#333">Continuous Delivery Pipeline</text>
    <text x="600" y="368" font-family="Arial, sans-serif" font-size="10" text-anchor="middle" fill="#333">Weekly releases with automated testing and deployment</text>
    
    <line x1="480" y1="315" x2="480" y2="335" stroke="#666" stroke-width="1"/>
    <line x1="600" y1="315" x2="600" y2="335" stroke="#666" stroke-width="1"/>
    <line x1="720" y1="315" x2="720" y2="335" stroke="#666" stroke-width="1"/>
    
    <!-- DevOps Team -->
    <rect x="525" y="395" width="150" height="30" rx="5" ry="5" fill="#E1F5E1" stroke="#C5D9C5" stroke-width="1"/>
    <text x="600" y="415" font-family="Arial, sans-serif" font-size="10" font-weight="bold" text-anchor="middle" fill="#333">DevOps Team</text>
    
    <line x1="600" y1="375" x2="600" y2="395" stroke="#666" stroke-width="1"/>
    
    <!-- Arrow connecting before and after -->
    <defs>
        <marker id="arrowhead" markerWidth="10" markerHeight="7" refX="0" refY="3.5" orient="auto">
            <polygon points="0 0, 10 3.5, 0 7" fill="#666"/>
        </marker>
    </defs>
    <line x1="375" y1="245" x2="415" y2="245" stroke="#666" stroke-width="2" stroke-dasharray="5,3" marker-end="url(#arrowhead)"/>
    
    <!-- Key changes annotation -->
    <rect x="350" y="50" width="100" height="120" rx="5" ry="5" fill="#FFC000" fill-opacity="0.2" stroke="#D9A600" stroke-width="1"/>
    <text x="400" y="65" font-family="Arial, sans-serif" font-size="10" font-weight="bold" text-anchor="middle">Key Changes:</text>
    <text x="400" y="85" font-family="Arial, sans-serif" font-size="9" text-anchor="middle">• 12-18 month →</text>
    <text x="400" y="100" font-family="Arial, sans-serif" font-size="9" text-anchor="middle">  weekly releases</text>
    <text x="400" y="115" font-family="Arial, sans-serif" font-size="9" text-anchor="middle">• Integrated cross-</text>
    <text x="400" y="130" font-family="Arial, sans-serif" font-size="9" text-anchor="middle">  functional teams</text>
    <text x="400" y="145" font-family="Arial, sans-serif" font-size="9" text-anchor="middle">• Automated testing</text>
    <text x="400" y="160" font-family="Arial, sans-serif" font-size="9" text-anchor="middle">• DevOps culture</text>
</svg>
