<svg width="900" height="600" xmlns="http://www.w3.org/2000/svg">
  <defs>
    <!-- Gradients for risk zones -->
    <linearGradient id="underfitGradient" x1="0%" y1="0%" x2="100%" y2="0%">
      <stop offset="0%" style="stop-color:#FF6B6B;stop-opacity:0.3"/>
      <stop offset="100%" style="stop-color:#FF6B6B;stop-opacity:0.1"/>
    </linearGradient>
    <linearGradient id="overfitGradient" x1="0%" y1="0%" x2="100%" y2="0%">
      <stop offset="0%" style="stop-color:#FFB366;stop-opacity:0.1"/>
      <stop offset="100%" style="stop-color:#FFB366;stop-opacity:0.3"/>
    </linearGradient>
    <!-- Drop shadow filter -->
    <filter id="shadow" x="-20%" y="-20%" width="140%" height="140%">
      <feDropShadow dx="2" dy="2" stdDeviation="2" flood-color="rgba(0,0,0,0.1)"/>
    </filter>
  </defs>
  
  <!-- Background -->
  <rect width="900" height="600" rx="10" fill="#f8f9fa" stroke="#e0e0e0" stroke-width="1"/>
  
  <!-- Title -->
  <text x="450" y="35" text-anchor="middle" font-family="Arial" font-size="20" font-weight="bold" fill="#333">
    AI Impact on Organizational Complexity Balance
  </text>
  
  <!-- Main chart area -->
  <rect x="80" y="70" width="680" height="380" fill="white" stroke="#cccccc" stroke-width="1" rx="5" filter="url(#shadow)"/>
  
  <!-- Grid lines -->
  <g stroke="#e8e8e8" stroke-width="0.5">
    <!-- Vertical grid lines -->
    <line x1="190" y1="70" x2="190" y2="450"/>
    <line x1="300" y1="70" x2="300" y2="450"/>
    <line x1="410" y1="70" x2="410" y2="450"/>
    <line x1="520" y1="70" x2="520" y2="450"/>
    <line x1="630" y1="70" x2="630" y2="450"/>
    <!-- Horizontal grid lines -->
    <line x1="80" y1="150" x2="760" y2="150"/>
    <line x1="80" y1="230" x2="760" y2="230"/>
    <line x1="80" y1="310" x2="760" y2="310"/>
    <line x1="80" y1="390" x2="760" y2="390"/>
  </g>
  
  <!-- Risk zone shading -->
  <!-- Underfitting zone -->
  <rect x="80" y="70" width="180" height="380" fill="url(#underfitGradient)"/>
  <!-- Overfitting zone -->
  <rect x="580" y="70" width="180" height="380" fill="url(#overfitGradient)"/>
  
  <!-- Axes -->
  <line x1="80" y1="450" x2="760" y2="450" stroke="#333" stroke-width="2"/>
  <line x1="80" y1="450" x2="80" y2="70" stroke="#333" stroke-width="2"/>
  
  <!-- X-axis labels -->
  <text x="80" y="470" text-anchor="middle" font-family="Arial" font-size="12" fill="#666">Low</text>
  <text x="300" y="470" text-anchor="middle" font-family="Arial" font-size="12" fill="#666">Medium</text>
  <text x="630" y="470" text-anchor="middle" font-family="Arial" font-size="12" fill="#666">High</text>
  <text x="420" y="490" text-anchor="middle" font-family="Arial" font-size="14" font-weight="bold" fill="#333">
    Organizational Complexity
  </text>
  
  <!-- Y-axis labels -->
  <text x="60" y="455" text-anchor="middle" font-family="Arial" font-size="12" fill="#666">Low</text>
  <text x="60" y="315" text-anchor="middle" font-family="Arial" font-size="12" fill="#666">Medium</text>
  <text x="60" y="175" text-anchor="middle" font-family="Arial" font-size="12" fill="#666">High</text>
  <text x="40" y="260" text-anchor="middle" font-family="Arial" font-size="14" font-weight="bold" fill="#333" transform="rotate(-90, 40, 260)">
    Organizational Effectiveness
  </text>
  
  <!-- Traditional Organization Curve (Blue, solid) -->
  <path d="M 120 420 Q 180 380 240 320 Q 300 220 360 200 Q 420 190 480 220 Q 540 260 600 340 Q 660 420 720 480" 
        fill="none" stroke="#3366cc" stroke-width="3"/>
  
  <!-- AI-Augmented Organization Curve (Green, dashed) -->
  <path d="M 140 400 Q 200 360 260 280 Q 320 180 380 160 Q 440 150 500 160 Q 560 180 620 220 Q 680 280 740 360" 
        fill="none" stroke="#90EE90" stroke-width="3" stroke-dasharray="8,4"/>
  
  <!-- Over-Engineered AI Curve (Red, dotted) -->
  <path d="M 160 380 Q 220 340 280 260 Q 340 200 400 180 Q 460 170 520 180 Q 580 200 640 280 Q 700 380 760 440" 
        fill="none" stroke="#FF6B6B" stroke-width="3" stroke-dasharray="3,3"/>
  
  <!-- Optimal points -->
  <!-- Traditional Sweet Spot -->
  <circle cx="360" cy="200" r="8" fill="#3366cc" stroke="white" stroke-width="2"/>
  <text x="360" y="185" text-anchor="middle" font-family="Arial" font-size="11" font-weight="bold" fill="#3366cc">
    Traditional
  </text>
  <text x="360" y="175" text-anchor="middle" font-family="Arial" font-size="11" font-weight="bold" fill="#3366cc">
    Optimum
  </text>
  
  <!-- AI-Enabled Sweet Spot -->
  <circle cx="500" cy="160" r="8" fill="#90EE90" stroke="white" stroke-width="2"/>
  <text x="500" y="145" text-anchor="middle" font-family="Arial" font-size="11" font-weight="bold" fill="#228B22">
    AI-Enabled
  </text>
  <text x="500" y="135" text-anchor="middle" font-family="Arial" font-size="11" font-weight="bold" fill="#228B22">
    Optimum
  </text>
  
  <!-- AI Impact Arrow -->
  <defs>
    <marker id="arrowhead" markerWidth="10" markerHeight="7" refX="9" refY="3.5" orient="auto">
      <polygon points="0 0, 10 3.5, 0 7" fill="#228B22"/>
    </marker>
  </defs>
  <path d="M 380 190 Q 420 170 460 170" fill="none" stroke="#228B22" stroke-width="2" marker-end="url(#arrowhead)"/>
  <text x="420" y="165" text-anchor="middle" font-family="Arial" font-size="10" font-weight="bold" fill="#228B22">
    AI Shift
  </text>
  
  <!-- Zone labels -->
  <text x="170" y="100" text-anchor="middle" font-family="Arial" font-size="13" font-weight="bold" fill="#CC0000">
    Underfitting Zone
  </text>
  <text x="170" y="115" text-anchor="middle" font-family="Arial" font-size="11" fill="#CC0000">
    Too Simple
  </text>
  <text x="170" y="128" text-anchor="middle" font-family="Arial" font-size="11" fill="#CC0000">
    Missing AI Benefits
  </text>
  
  <text x="670" y="100" text-anchor="middle" font-family="Arial" font-size="13" font-weight="bold" fill="#FF8800">
    Overfitting Zone
  </text>
  <text x="670" y="115" text-anchor="middle" font-family="Arial" font-size="11" fill="#FF8800">
    Over-Engineered
  </text>
  <text x="670" y="128" text-anchor="middle" font-family="Arial" font-size="11" fill="#FF8800">
    AI Complexity Overhead
  </text>
  
  <!-- Failure mode indicators -->
  <g font-family="Arial" font-size="10" fill="#666">
    <!-- Left side failures -->
    <rect x="90" y="350" width="140" height="50" fill="white" stroke="#FF6B6B" stroke-width="1" rx="3" opacity="0.9"/>
    <text x="160" y="365" text-anchor="middle" font-weight="bold">Failure Modes:</text>
    <text x="160" y="378" text-anchor="middle">• Missed Opportunities</text>
    <text x="160" y="391" text-anchor="middle">• Manual Inefficiencies</text>
    
    <!-- Right side failures -->
    <rect x="590" y="350" width="150" height="50" fill="white" stroke="#FFB366" stroke-width="1" rx="3" opacity="0.9"/>
    <text x="665" y="365" text-anchor="middle" font-weight="bold">Failure Modes:</text>
    <text x="665" y="378" text-anchor="middle">• Coordination Overhead</text>
    <text x="665" y="391" text-anchor="middle">• Analysis Paralysis</text>
  </g>
  
  <!-- Legend -->
  <rect x="80" y="470" width="680" height="80" fill="white" stroke="#cccccc" stroke-width="1" rx="5"/>
  <text x="420" y="485" text-anchor="middle" font-family="Arial" font-size="14" font-weight="bold" fill="#333">
    Legend &amp; Key Insights
  </text>
  
  <!-- Legend items -->
  <g font-family="Arial" font-size="11">
    <!-- Traditional curve -->
    <line x1="90" y1="500" x2="120" y2="500" stroke="#3366cc" stroke-width="3"/>
    <text x="130" y="504" fill="#333">Traditional Organization</text>
    
    <!-- AI curve -->
    <line x1="90" y1="515" x2="120" y2="515" stroke="#90EE90" stroke-width="3" stroke-dasharray="8,4"/>
    <text x="130" y="519" fill="#333">AI-Augmented Organization</text>
    
    <!-- Over-engineered curve -->
    <line x1="90" y1="530" x2="120" y2="530" stroke="#FF6B6B" stroke-width="3" stroke-dasharray="3,3"/>
    <text x="130" y="534" fill="#333">Over-Engineered AI Implementation</text>
  </g>
  
  <!-- Key insights -->
  <text x="400" y="504" font-family="Arial" font-size="11" fill="#333">
    Key Insight: AI enables organizations to operate effectively at higher complexity levels,
  </text>
  <text x="400" y="519" font-family="Arial" font-size="11" fill="#333">
    shifting the optimal balance point rightward while creating new risks of over-engineering.
  </text>
  <text x="400" y="534" font-family="Arial" font-size="11" fill="#333" font-weight="bold">
    Strategic Focus: Find the new AI-enabled sweet spot while avoiding complexity overhead.
  </text>
  
  <!-- Complexity indicators along x-axis -->
  <g font-family="Arial" font-size="9" fill="#666">
    <text x="160" y="465" text-anchor="middle">Basic processes</text>
    <text x="300" y="465" text-anchor="middle">Standard systems</text>
    <text x="500" y="465" text-anchor="middle">AI-integrated workflows</text>
    <text x="650" y="465" text-anchor="middle">Complex AI orchestration</text>
  </g>
</svg> 