<?xml version="1.0" encoding="UTF-8" standalone="no"?>
<svg width="900" height="600" xmlns="http://www.w3.org/2000/svg">
    <!-- Background -->
    <rect width="900" height="600" fill="#ffffff"/>
    
    <!-- Title -->
    <text x="450" y="40" font-family="Arial" font-size="24" font-weight="bold" text-anchor="middle">
        Human vs. AI Estimation Patterns
    </text>
    
    <!-- X-axis -->
    <line x1="100" y1="450" x2="800" y2="450" stroke="#000000" stroke-width="2"/>
    
    <!-- Y-axis -->
    <line x1="100" y1="50" x2="100" y2="450" stroke="#000000" stroke-width="2"/>
    
    <!-- Axes labels -->
    <text x="450" y="500" font-family="Arial" font-size="18" text-anchor="middle">
        Estimated Time / Actual Time Required (ratio)
    </text>
    <text x="40" y="250" font-family="Arial" font-size="18" text-anchor="middle" transform="rotate(270, 40, 250)">
        Frequency
    </text>
    
    <!-- X-axis ticks and labels -->
    <line x1="100" y1="450" x2="100" y2="455" stroke="#000000" stroke-width="1"/>
    <text x="100" y="475" font-family="Arial" font-size="12" text-anchor="middle">0.0</text>
    
    <line x1="200" y1="450" x2="200" y2="455" stroke="#000000" stroke-width="1"/>
    <text x="200" y="475" font-family="Arial" font-size="12" text-anchor="middle">0.5</text>
    
    <line x1="300" y1="450" x2="300" y2="455" stroke="#000000" stroke-width="1"/>
    <text x="300" y="475" font-family="Arial" font-size="12" text-anchor="middle">0.75</text>
    
    <line x1="450" y1="450" x2="450" y2="455" stroke="#000000" stroke-width="1"/>
    <text x="450" y="475" font-family="Arial" font-size="12" text-anchor="middle">1.0</text>
    
    <line x1="600" y1="450" x2="600" y2="455" stroke="#000000" stroke-width="1"/>
    <text x="600" y="475" font-family="Arial" font-size="12" text-anchor="middle">1.25</text>
    
    <line x1="700" y1="450" x2="700" y2="455" stroke="#000000" stroke-width="1"/>
    <text x="700" y="475" font-family="Arial" font-size="12" text-anchor="middle">1.5</text>
    
    <line x1="800" y1="450" x2="800" y2="455" stroke="#000000" stroke-width="1"/>
    <text x="800" y="475" font-family="Arial" font-size="12" text-anchor="middle">2.0</text>
    
    <!-- Reference line at 1.0 (accurate estimation) -->
    <line x1="450" y1="50" x2="450" y2="450" stroke="#888888" stroke-width="1" stroke-dasharray="5,5"/>
    <text x="455" y="65" font-family="Arial" font-size="12" fill="#666666" text-anchor="start">
        Perfect Estimation (1:1)
    </text>
    
    <!-- Human estimation curve (wider, skewed towards underestimation due to optimism bias) -->
    <path d="M 100,450 Q 200,450 250,425 T 350,300 T 450,200 T 550,250 T 650,350 T 750,425 T 800,450" 
          fill="none" stroke="#3366cc" stroke-width="3"/>
    
    <!-- AI estimation curve (narrower, centered) -->
    <path d="M 250,450 Q 300,425 350,350 T 450,150 T 550,350 T 600,425 T 650,450" 
          fill="none" stroke="#cc3366" stroke-width="3" stroke-dasharray="5,5"/>
    
    <!-- Fill areas under curves with low opacity -->
    <path d="M 100,450 Q 200,450 250,425 T 350,300 T 450,200 T 550,250 T 650,350 T 750,425 T 800,450 L 800,450 L 100,450 Z" 
          fill="#3366cc" fill-opacity="0.2"/>
    
    <path d="M 250,450 Q 300,425 350,350 T 450,150 T 550,350 T 600,425 T 650,450 L 650,450 L 250,450 Z" 
          fill="#cc3366" fill-opacity="0.2"/>
    
    <!-- Legend -->
    <rect x="600" y="100" width="20" height="10" fill="#3366cc" fill-opacity="0.2" stroke="#3366cc" stroke-width="3"/>
    <text x="630" y="110" font-family="Arial" font-size="14" text-anchor="start">Human Estimation</text>
    
    <rect x="600" y="130" width="20" height="10" fill="#cc3366" fill-opacity="0.2" stroke="#cc3366" stroke-width="3" stroke-dasharray="5,5"/>
    <text x="630" y="140" font-family="Arial" font-size="14" text-anchor="start">AI Estimation</text>
    
    <!-- Annotations -->
    <!-- Human optimism bias -->
    <text x="200" y="175" font-family="Arial" font-size="14" fill="#3366cc" text-anchor="start" font-style="italic">
        Wider distribution
    </text>
    <text x="200" y="195" font-family="Arial" font-size="14" fill="#3366cc" text-anchor="start" font-style="italic">
        (more variable estimates)
    </text>
    <path d="M 350, 240 L 300, 185" stroke="#3366cc" stroke-width="1" fill="none"/>
    
    <!-- Human curve skewed -->
    <text x="520" y="350" font-family="Arial" font-size="14" fill="#3366cc" text-anchor="start" font-style="italic">
        Skewed by optimism bias
    </text>
    <text x="520" y="370" font-family="Arial" font-size="14" fill="#3366cc" text-anchor="start" font-style="italic">
        (underestimation)
    </text>
    <path d="M 500, 330 L 520, 360" stroke="#3366cc" stroke-width="1" fill="none"/>
    
    <!-- AI potential issues -->
    <text x="300" y="280" font-family="Arial" font-size="14" fill="#cc3366" text-anchor="start" font-style="italic">
        Potentially narrower
    </text>
    <text x="300" y="300" font-family="Arial" font-size="14" fill="#cc3366" text-anchor="start" font-style="italic">
        distribution
    </text>
    <path d="M 400, 250 L 360, 290" stroke="#cc3366" stroke-width="1" fill="none"/>
    
    <!-- AI data bias -->
    <text x="620" y="230" font-family="Arial" font-size="14" fill="#cc3366" text-anchor="end" font-style="italic">
        Subject to training
    </text>
    <text x="620" y="250" font-family="Arial" font-size="14" fill="#cc3366" text-anchor="end" font-style="italic">
        data bias
    </text>
    <path d="M 520, 210 L 570, 240" stroke="#cc3366" stroke-width="1" fill="none"/>
</svg> 