<svg viewBox="0 0 900 500" xmlns="http://www.w3.org/2000/svg">
  <!-- Background -->
  <rect width="900" height="500" fill="#f8f9fa" rx="10" ry="10" />
  
  <!-- Title -->
  <text x="450" y="40" font-family="Arial, sans-serif" font-size="24" font-weight="bold" text-anchor="middle" fill="#333">Temporal Flexibility in AI-Integrated Organizations</text>
  
  <!-- AM Clock face background -->
  <circle cx="300" cy="220" r="120" fill="white" stroke="#adb5bd" stroke-width="2" />
  
  <!-- PM Clock face background -->
  <circle cx="600" cy="220" r="120" fill="white" stroke="#adb5bd" stroke-width="2" />
  
  <!-- AM/PM Labels -->
  <text x="300" y="80" font-family="Arial, sans-serif" font-size="20" font-weight="bold" text-anchor="middle" fill="#333">AM Hours</text>
  <text x="600" y="80" font-family="Arial, sans-serif" font-size="20" font-weight="bold" text-anchor="middle" fill="#333">PM Hours</text>
  
  <!-- AM Hour markers -->
  <line x1="300" y1="110" x2="300" y2="125" stroke="#495057" stroke-width="2" /> <!-- 12 -->
  <line x1="355" y1="122" x2="345" y2="135" stroke="#495057" stroke-width="1.5" /> <!-- 1 -->
  <line x1="398" y1="165" x2="385" y2="175" stroke="#495057" stroke-width="1.5" /> <!-- 2 -->
  <line x1="410" y1="220" x2="395" y2="220" stroke="#495057" stroke-width="2" /> <!-- 3 -->
  <line x1="398" y1="275" x2="385" y2="265" stroke="#495057" stroke-width="1.5" /> <!-- 4 -->
  <line x1="355" y1="318" x2="345" y2="305" stroke="#495057" stroke-width="1.5" /> <!-- 5 -->
  <line x1="300" y1="330" x2="300" y2="315" stroke="#495057" stroke-width="2" /> <!-- 6 -->
  <line x1="245" y1="318" x2="255" y2="305" stroke="#495057" stroke-width="1.5" /> <!-- 7 -->
  <line x1="202" y1="275" x2="215" y2="265" stroke="#495057" stroke-width="1.5" /> <!-- 8 -->
  <line x1="190" y1="220" x2="205" y2="220" stroke="#495057" stroke-width="2" /> <!-- 9 -->
  <line x1="202" y1="165" x2="215" y2="175" stroke="#495057" stroke-width="1.5" /> <!-- 10 -->
  <line x1="245" y1="122" x2="255" y2="135" stroke="#495057" stroke-width="1.5" /> <!-- 11 -->
  
  <!-- PM Hour markers -->
  <line x1="600" y1="110" x2="600" y2="125" stroke="#495057" stroke-width="2" /> <!-- 12 -->
  <line x1="655" y1="122" x2="645" y2="135" stroke="#495057" stroke-width="1.5" /> <!-- 1 -->
  <line x1="698" y1="165" x2="685" y2="175" stroke="#495057" stroke-width="1.5" /> <!-- 2 -->
  <line x1="710" y1="220" x2="695" y2="220" stroke="#495057" stroke-width="2" /> <!-- 3 -->
  <line x1="698" y1="275" x2="685" y2="265" stroke="#495057" stroke-width="1.5" /> <!-- 4 -->
  <line x1="655" y1="318" x2="645" y2="305" stroke="#495057" stroke-width="1.5" /> <!-- 5 -->
  <line x1="600" y1="330" x2="600" y2="315" stroke="#495057" stroke-width="2" /> <!-- 6 -->
  <line x1="545" y1="318" x2="555" y2="305" stroke="#495057" stroke-width="1.5" /> <!-- 7 -->
  <line x1="502" y1="275" x2="515" y2="265" stroke="#495057" stroke-width="1.5" /> <!-- 8 -->
  <line x1="490" y1="220" x2="505" y2="220" stroke="#495057" stroke-width="2" /> <!-- 9 -->
  <line x1="502" y1="165" x2="515" y2="175" stroke="#495057" stroke-width="1.5" /> <!-- 10 -->
  <line x1="545" y1="122" x2="555" y2="135" stroke="#495057" stroke-width="1.5" /> <!-- 11 -->
  
  <!-- AM Clock numbers -->
  <text x="300" y="105" font-family="Arial, sans-serif" font-size="14" font-weight="bold" text-anchor="middle" fill="#333">12</text>
  <text x="360" y="115" font-family="Arial, sans-serif" font-size="12" font-weight="bold" text-anchor="middle" fill="#333">1</text>
  <text x="405" y="160" font-family="Arial, sans-serif" font-size="12" font-weight="bold" text-anchor="middle" fill="#333">2</text>
  <text x="420" y="220" font-family="Arial, sans-serif" font-size="14" font-weight="bold" text-anchor="middle" fill="#333">3</text>
  <text x="405" y="285" font-family="Arial, sans-serif" font-size="12" font-weight="bold" text-anchor="middle" fill="#333">4</text>
  <text x="360" y="330" font-family="Arial, sans-serif" font-size="12" font-weight="bold" text-anchor="middle" fill="#333">5</text>
  <text x="300" y="345" font-family="Arial, sans-serif" font-size="14" font-weight="bold" text-anchor="middle" fill="#333">6</text>
  <text x="240" y="330" font-family="Arial, sans-serif" font-size="12" font-weight="bold" text-anchor="middle" fill="#333">7</text>
  <text x="195" y="285" font-family="Arial, sans-serif" font-size="12" font-weight="bold" text-anchor="middle" fill="#333">8</text>
  <text x="180" y="220" font-family="Arial, sans-serif" font-size="14" font-weight="bold" text-anchor="middle" fill="#333">9</text>
  <text x="195" y="160" font-family="Arial, sans-serif" font-size="12" font-weight="bold" text-anchor="middle" fill="#333">10</text>
  <text x="240" y="115" font-family="Arial, sans-serif" font-size="12" font-weight="bold" text-anchor="middle" fill="#333">11</text>
  
  <!-- PM Clock numbers -->
  <text x="600" y="105" font-family="Arial, sans-serif" font-size="14" font-weight="bold" text-anchor="middle" fill="#333">12</text>
  <text x="660" y="115" font-family="Arial, sans-serif" font-size="12" font-weight="bold" text-anchor="middle" fill="#333">1</text>
  <text x="705" y="160" font-family="Arial, sans-serif" font-size="12" font-weight="bold" text-anchor="middle" fill="#333">2</text>
  <text x="720" y="220" font-family="Arial, sans-serif" font-size="14" font-weight="bold" text-anchor="middle" fill="#333">3</text>
  <text x="705" y="285" font-family="Arial, sans-serif" font-size="12" font-weight="bold" text-anchor="middle" fill="#333">4</text>
  <text x="660" y="330" font-family="Arial, sans-serif" font-size="12" font-weight="bold" text-anchor="middle" fill="#333">5</text>
  <text x="600" y="345" font-family="Arial, sans-serif" font-size="14" font-weight="bold" text-anchor="middle" fill="#333">6</text>
  <text x="540" y="330" font-family="Arial, sans-serif" font-size="12" font-weight="bold" text-anchor="middle" fill="#333">7</text>
  <text x="495" y="285" font-family="Arial, sans-serif" font-size="12" font-weight="bold" text-anchor="middle" fill="#333">8</text>
  <text x="480" y="220" font-family="Arial, sans-serif" font-size="14" font-weight="bold" text-anchor="middle" fill="#333">9</text>
  <text x="495" y="160" font-family="Arial, sans-serif" font-size="12" font-weight="bold" text-anchor="middle" fill="#333">10</text>
  <text x="540" y="115" font-family="Arial, sans-serif" font-size="12" font-weight="bold" text-anchor="middle" fill="#333">11</text>
  
  <!-- Traditional Work Hours (9AM-5PM) -->
  <!-- 9AM sector on AM clock -->
  <path d="M 300 220 L 190 220 A 120 120 0 0 1 300 100 L 300 220 Z" fill="#FFDA66" stroke="#F0C030" stroke-width="2" opacity="0.8" />
  
  <!-- 1PM-5PM sector on PM clock -->
  <path d="M 600 220 L 600 100 A 120 120 0 0 1 655 318 L 600 220 Z" fill="#FFDA66" stroke="#F0C030" stroke-width="2" opacity="0.8" />
  
  <!-- AI-enabled continuous operations (all other hours) -->
  <!-- AM hours outside 9AM-12PM -->
  <path d="M 300 220 L 300 100 A 120 120 0 1 1 190 220 L 300 220 Z" fill="#d0e8f2" stroke="#79c0d4" stroke-width="2" opacity="0.7" />
  
  <!-- PM hours outside 1PM-5PM -->
  <path d="M 600 220 L 655 318 A 120 120 0 0 1 600 340 A 120 120 0 0 1 490 220 A 120 120 0 0 1 600 100 L 600 220 Z" fill="#d0e8f2" stroke="#79c0d4" stroke-width="2" opacity="0.7" />
  
  <!-- Clock centers and hands -->
  <circle cx="300" cy="220" r="8" fill="#495057" />
  <line x1="300" y1="220" x2="300" y2="140" stroke="#333" stroke-width="3" /> <!-- AM Hour hand -->
  <line x1="300" y1="220" x2="350" y2="220" stroke="#333" stroke-width="2" /> <!-- AM Minute hand -->
  <circle cx="300" cy="220" r="4" fill="#333" />
  
  <circle cx="600" cy="220" r="8" fill="#495057" />
  <line x1="600" y1="220" x2="600" y2="140" stroke="#333" stroke-width="3" /> <!-- PM Hour hand -->
  <line x1="600" y1="220" x2="650" y2="220" stroke="#333" stroke-width="2" /> <!-- PM Minute hand -->
  <circle cx="600" cy="220" r="4" fill="#333" />
  
  <!-- Labels for specific times -->
  <text x="180" y="200" font-family="Arial, sans-serif" font-size="14" font-weight="bold" text-anchor="middle" fill="#333">9AM</text>
  <text x="655" y="330" font-family="Arial, sans-serif" font-size="14" font-weight="bold" text-anchor="middle" fill="#333">5PM</text>
  
  <!-- Work hours labels -->
  <text x="250" y="160" font-family="Arial, sans-serif" font-size="14" text-anchor="middle" fill="#333" font-weight="bold">Traditional</text>
  <text x="250" y="180" font-family="Arial, sans-serif" font-size="14" text-anchor="middle" fill="#333" font-weight="bold">Work Hours</text>
  
  <text x="650" y="160" font-family="Arial, sans-serif" font-size="14" text-anchor="middle" fill="#333" font-weight="bold">Traditional</text>
  <text x="650" y="180" font-family="Arial, sans-serif" font-size="14" text-anchor="middle" fill="#333" font-weight="bold">Work Hours</text>
  
  <!-- AI-enabled labels -->
  <text x="350" y="280" font-family="Arial, sans-serif" font-size="14" text-anchor="middle" fill="#2a6f97" font-weight="bold">AI-Enabled</text>
  <text x="350" y="300" font-family="Arial, sans-serif" font-size="14" text-anchor="middle" fill="#2a6f97" font-weight="bold">Operations</text>
  
  <text x="550" y="280" font-family="Arial, sans-serif" font-size="14" text-anchor="middle" fill="#2a6f97" font-weight="bold">AI-Enabled</text>
  <text x="550" y="300" font-family="Arial, sans-serif" font-size="14" text-anchor="middle" fill="#2a6f97" font-weight="bold">Operations</text>
  
  <!-- Three models -->
  <rect x="150" y="380" width="180" height="80" rx="5" ry="5" fill="#fff" stroke="#dee2e6" stroke-width="2" />
  <text x="240" y="405" font-family="Arial, sans-serif" font-size="16" font-weight="bold" text-anchor="middle" fill="#495057">Simplistic Model</text>
  <text x="240" y="425" font-family="Arial, sans-serif" font-size="12" text-anchor="middle" fill="#6c757d">Missing opportunities for</text>
  <text x="240" y="445" font-family="Arial, sans-serif" font-size="12" text-anchor="middle" fill="#6c757d">asynchronous operation</text>
  
  <rect x="360" y="380" width="180" height="80" rx="5" ry="5" fill="#fff" stroke="#dee2e6" stroke-width="2" />
  <text x="450" y="405" font-family="Arial, sans-serif" font-size="16" font-weight="bold" text-anchor="middle" fill="#495057">Balanced Model</text>
  <text x="450" y="425" font-family="Arial, sans-serif" font-size="12" text-anchor="middle" fill="#6c757d">Optimal temporal</text>
  <text x="450" y="445" font-family="Arial, sans-serif" font-size="12" text-anchor="middle" fill="#6c757d">flexibility coordination</text>
  
  <rect x="570" y="380" width="180" height="80" rx="5" ry="5" fill="#fff" stroke="#dee2e6" stroke-width="2" />
  <text x="660" y="405" font-family="Arial, sans-serif" font-size="16" font-weight="bold" text-anchor="middle" fill="#495057">Complex Model</text>
  <text x="660" y="425" font-family="Arial, sans-serif" font-size="12" text-anchor="middle" fill="#6c757d">Unnecessary coordination</text>
  <text x="660" y="445" font-family="Arial, sans-serif" font-size="12" text-anchor="middle" fill="#6c757d">overhead</text>
  
  <!-- Key opportunities -->
  <rect x="150" y="470" width="600" height="20" rx="5" ry="5" fill="#e9f2eb" stroke="#95d5b2" stroke-width="1" />
  <text x="450" y="485" font-family="Arial, sans-serif" font-size="14" font-weight="bold" text-anchor="middle" fill="#333">Key Opportunities: "Night-shift" capabilities • Asynchronous operations • Continuous workflow • Lights-out functionality</text>
  
  <!-- Connection arrow -->
  <path d="M 420 220 L 490 220" fill="none" stroke="#adb5bd" stroke-width="2" stroke-dasharray="5,5" />
  <polygon points="485,215 495,220 485,225" fill="#adb5bd" />
</svg>
