<?xml version="1.0" encoding="UTF-8" standalone="no"?>
<svg width="800" height="500" viewBox="0 0 800 500" xmlns="http://www.w3.org/2000/svg">
  <!-- Background -->
  <rect width="800" height="500" fill="#ffffff"/>
  
  <!-- Graph area -->
  <rect x="100" y="100" width="600" height="300" fill="#f9f9f9" stroke="#e0e0e0" stroke-width="1"/>
  
  <!-- Grid lines -->
  <g stroke="#e0e0e0" stroke-width="1">
    <!-- Vertical grid lines -->
    <line x1="100" y1="100" x2="100" y2="400"/>
    <line x1="250" y1="100" x2="250" y2="400"/>
    <line x1="400" y1="100" x2="400" y2="400"/>
    <line x1="550" y1="100" x2="550" y2="400"/>
    <line x1="700" y1="100" x2="700" y2="400"/>
    
    <!-- Horizontal grid lines -->
    <line x1="100" y1="100" x2="700" y2="100"/>
    <line x1="100" y1="175" x2="700" y2="175"/>
    <line x1="100" y1="250" x2="700" y2="250"/>
    <line x1="100" y1="325" x2="700" y2="325"/>
    <line x1="100" y1="400" x2="700" y2="400"/>
  </g>
  
  <!-- Axes -->
  <g stroke="#333333" stroke-width="2">
    <line x1="100" y1="400" x2="700" y2="400"/> <!-- x-axis -->
    <line x1="100" y1="100" x2="100" y2="400"/> <!-- y-axis -->
    
    <!-- x-axis arrow -->
    <polygon points="705,400 695,395 695,405" fill="#333333"/>
    
    <!-- y-axis arrow -->
    <polygon points="100,95 95,105 105,105" fill="#333333"/>
  </g>
  
  <!-- Test Error curve (U-shape) -->
  <path d="M 100,180 Q 225,240 400,260 Q 575,220 700,140" 
        fill="none" stroke="#3366cc" stroke-width="4"/>
  
  <!-- Training Error curve (continuously decreasing) -->
  <path d="M 100,180 Q 225,220 400,280 Q 575,330 700,350" 
        fill="none" stroke="#cc3366" stroke-width="3" stroke-dasharray="5,5"/>
  
  <!-- Optimal point markers -->
  <circle cx="400" cy="260" r="8" fill="#00cc00"/>
  
  <!-- Region labels -->
  <g font-family="Arial, sans-serif" font-size="16" text-anchor="middle">
    <!-- Underfitting region -->
    <rect x="150" y="170" width="120" height="30" rx="15" fill="#ffd700" fill-opacity="0.3"/>
    <text x="210" y="190" fill="#333333">Underfitting</text>
    <text x="210" y="210" fill="#666666" font-size="14">High Bias</text>
    
    <!-- Optimal region -->
    <rect x="350" y="215" width="100" height="30" rx="15" fill="#90ee90" fill-opacity="0.5"/>
    <text x="400" y="235" fill="#333333">Optimal</text>
    
    <!-- Overfitting region -->
    <rect x="530" y="170" width="120" height="30" rx="15" fill="#ffd700" fill-opacity="0.3"/>
    <text x="590" y="190" fill="#333333">Overfitting</text>
    <text x="590" y="210" fill="#666666" font-size="14">High Variance</text>
  </g>
  
  <!-- Axis labels -->
  <g font-family="Arial, sans-serif" font-size="18" text-anchor="middle">
    <text x="400" y="440" fill="#333333">Model Complexity</text>
    <text x="50" y="250" fill="#333333" transform="rotate(-90, 50, 250)">Error</text>
    
    <!-- Legend -->
    <rect x="500" y="30" width="180" height="50" rx="5" fill="white" stroke="#e0e0e0" stroke-width="1"/>
    <line x1="520" y1="45" x2="550" y2="45" stroke="#3366cc" stroke-width="4"/>
    <text x="600" y="50" text-anchor="start" font-size="14">Test Error</text>
    <line x1="520" y1="65" x2="550" y2="65" stroke="#cc3366" stroke-width="3" stroke-dasharray="5,5"/>
    <text x="600" y="70" text-anchor="start" font-size="14">Training Error</text>
  </g>
  
  <!-- Low/High markers -->
  <g font-family="Arial, sans-serif" font-size="14" fill="#666666">
    <text x="100" y="420" text-anchor="middle">Low</text>
    <text x="700" y="420" text-anchor="middle">High</text>
    <text x="80" y="100" text-anchor="end">High</text>
    <text x="80" y="400" text-anchor="end">Low</text>
  </g>
</svg> 