<?xml version="1.0" encoding="UTF-8" standalone="no"?>
<svg width="800" height="600" viewBox="0 0 800 600" xmlns="http://www.w3.org/2000/svg">
  <style>
    .background { fill: #f8f9fa; }
    .section-title { font-family: Arial, sans-serif; font-size: 18px; font-weight: bold; text-anchor: middle; }
    .node-title { font-family: Arial, sans-serif; font-size: 14px; font-weight: bold; text-anchor: middle; }
    .node-description { font-family: Arial, sans-serif; font-size: 12px; text-anchor: middle; }
    .human-node { fill: #E1F5FE; stroke: #0288D1; stroke-width: 2; }
    .ai-node { fill: #F3E5F5; stroke: #7B1FA2; stroke-width: 2; }
    .hybrid-node { fill: #E8F5E9; stroke: #388E3C; stroke-width: 2; }
    .information-flow { stroke: #555; stroke-width: 1.5; marker-end: url(#arrowhead); fill: none; }
    .feedback-flow { stroke: #FF7043; stroke-width: 1.5; marker-end: url(#arrowhead); stroke-dasharray: 5,3; fill: none; }
    .boundary { stroke: #78909C; stroke-width: 1.5; fill: none; stroke-dasharray: 10,4; }
  </style>

  <defs>
    <marker id="arrowhead" markerWidth="10" markerHeight="7" refX="9" refY="3.5" orient="auto">
      <polygon points="0 0, 10 3.5, 0 7" fill="#555" />
    </marker>
    <linearGradient id="human-ai-gradient" x1="0%" y1="0%" x2="100%" y2="0%">
      <stop offset="0%" stop-color="#E1F5FE" />
      <stop offset="100%" stop-color="#F3E5F5" />
    </linearGradient>
  </defs>

  <rect x="0" y="0" width="800" height="600" class="background" />
  
  <!-- Title -->
  <text x="400" y="40" class="section-title" font-size="24">Human-AI Orchestration in Organizations</text>
  
  <!-- Organization Context -->
  <rect x="50" y="70" width="700" height="500" rx="15" class="boundary" />
  <text x="400" y="90" class="section-title">Organizational Context</text>

  <!-- Human Domain -->
  <rect x="80" y="120" width="230" height="420" rx="10" class="boundary" />
  <text x="195" y="145" class="section-title">Human Domain</text>
  
  <!-- AI Domain -->
  <rect x="490" y="120" width="230" height="420" rx="10" class="boundary" />
  <text x="605" y="145" class="section-title">AI Domain</text>
  
  <!-- Orchestration Zone -->
  <rect x="310" y="160" width="180" height="340" rx="10" fill="url(#human-ai-gradient)" stroke="#555" stroke-width="1.5" />
  <text x="400" y="185" class="section-title">Orchestration</text>

  <!-- Human Nodes -->
  <g>
    <!-- Strategic Leadership -->
    <circle cx="150" cy="200" r="40" class="human-node" />
    <text x="150" y="195" class="node-title">Strategic</text>
    <text x="150" y="215" class="node-description">Leadership</text>

    <!-- Domain Expertise -->
    <circle cx="150" cy="300" r="40" class="human-node" />
    <text x="150" y="295" class="node-title">Domain</text>
    <text x="150" y="315" class="node-description">Expertise</text>
    
    <!-- Ethical Judgment -->
    <circle cx="150" cy="400" r="40" class="human-node" />
    <text x="150" y="395" class="node-title">Ethical</text>
    <text x="150" y="415" class="node-description">Judgment</text>
    
    <!-- Creativity -->
    <circle cx="150" cy="500" r="40" class="human-node" />
    <text x="150" y="495" class="node-title">Creativity</text>
    <text x="150" y="515" class="node-description">Innovation</text>
  </g>

  <!-- AI Nodes -->
  <g>
    <!-- Data Analysis -->
    <circle cx="650" cy="200" r="40" class="ai-node" />
    <text x="650" y="195" class="node-title">Data</text>
    <text x="650" y="215" class="node-description">Analysis</text>

    <!-- Prediction Models -->
    <circle cx="650" cy="300" r="40" class="ai-node" />
    <text x="650" y="295" class="node-title">Prediction</text>
    <text x="650" y="315" class="node-description">Models</text>
    
    <!-- Process Automation -->
    <circle cx="650" cy="400" r="40" class="ai-node" />
    <text x="650" y="395" class="node-title">Process</text>
    <text x="650" y="415" class="node-description">Automation</text>
    
    <!-- Knowledge Management -->
    <circle cx="650" cy="500" r="40" class="ai-node" />
    <text x="650" y="495" class="node-title">Knowledge</text>
    <text x="650" y="515" class="node-description">Management</text>
  </g>

  <!-- Orchestration Nodes -->
  <g>
    <!-- Decision Support Systems -->
    <rect x="350" y="220" width="100" height="60" rx="10" class="hybrid-node" />
    <text x="400" y="245" class="node-title">Decision</text>
    <text x="400" y="265" class="node-description">Support</text>
    
    <!-- Collaborative Intelligence -->
    <rect x="350" y="320" width="100" height="60" rx="10" class="hybrid-node" />
    <text x="400" y="345" class="node-title">Collaborative</text>
    <text x="400" y="365" class="node-description">Intelligence</text>
    
    <!-- Human-in-the-Loop Systems -->
    <rect x="350" y="420" width="100" height="60" rx="10" class="hybrid-node" />
    <text x="400" y="445" class="node-title">Human-in-</text>
    <text x="400" y="465" class="node-description">the-Loop</text>
  </g>

  <!-- Connections - Human to Orchestration -->
  <path d="M 190,200 L 350,250" class="information-flow" />
  <path d="M 190,300 L 350,350" class="information-flow" />
  <path d="M 190,400 L 350,450" class="information-flow" />
  <path d="M 190,500 C 230,490 270,470 350,450" class="information-flow" />
  
  <!-- Connections - AI to Orchestration -->
  <path d="M 610,200 L 450,250" class="information-flow" />
  <path d="M 610,300 L 450,350" class="information-flow" />
  <path d="M 610,400 L 450,450" class="information-flow" />
  <path d="M 610,500 C 570,490 530,470 450,450" class="information-flow" />
  
  <!-- Feedback Loops -->
  <path d="M 450,280 C 500,280 500,220 450,220" class="feedback-flow" />
  <path d="M 450,380 C 500,380 500,320 450,320" class="feedback-flow" />
  <path d="M 450,480 C 500,480 500,420 450,420" class="feedback-flow" />
  
  <!-- Cross-domain Learning -->
  <path d="M 150,240 C 200,270 250,330 150,360" class="feedback-flow" />
  <path d="M 650,240 C 600,270 550,330 650,360" class="feedback-flow" />
  
  <!-- Legend -->
  <g transform="translate(60, 550)">
    <rect x="0" y="0" width="680" height="30" fill="white" stroke="#333" stroke-width="1" />
    
    <circle cx="30" cy="15" r="10" class="human-node" />
    <text x="50" y="20" class="node-description">Human</text>
    
    <circle cx="130" cy="15" r="10" class="ai-node" />
    <text x="150" y="20" class="node-description">AI System</text>
    
    <rect x="210" y="5" width="20" height="20" rx="3" class="hybrid-node" />
    <text x="240" y="20" class="node-description">Hybrid System</text>
    
    <line x1="300" y1="15" x2="330" y2="15" class="information-flow" />
    <text x="350" y="20" class="node-description">Information Flow</text>
    
    <line x1="430" y1="15" x2="460" y2="15" class="feedback-flow" />
    <text x="480" y="20" class="node-description">Feedback/Learning</text>
    
    <line x1="570" y1="15" x2="600" y2="15" class="boundary" />
    <text x="630" y="20" class="node-description">Domain Boundary</text>
  </g>
</svg> 