<svg viewBox="0 0 900 700" xmlns="http://www.w3.org/2000/svg">
  <!-- Title and background -->
  <rect width="900" height="700" fill="#f8f9fa" rx="10" ry="10" />
  <text x="450" y="40" font-family="Arial, sans-serif" font-size="24" text-anchor="middle" font-weight="bold">Medium Organization Scaling Strategies</text>
  
  <!-- Back to overview button -->
  <a id="back-to-overview" href="model-scaling-top.svg">
    <rect x="50" y="30" width="140" height="30" rx="15" ry="15" fill="#ddd" stroke="#333" stroke-width="1" />
    <text x="120" y="50" font-family="Arial, sans-serif" font-size="14" text-anchor="middle">← Back to Overview</text>
  </a>
  
  <!-- Growth Trajectory decision point -->
  <polygon points="450,100 510,160 450,220 390,160" fill="#f9f" stroke="#333" stroke-width="2" />
  <text x="450" y="155" font-family="Arial, sans-serif" font-size="16" text-anchor="middle" font-weight="bold">Growth</text>
  <text x="450" y="175" font-family="Arial, sans-serif" font-size="16" text-anchor="middle" font-weight="bold">Trajectory?</text>
  
  <!-- Growth trajectory paths -->
  <line x1="390" y1="160" x2="200" y2="240" stroke="#666" stroke-width="2" />
  <line x1="450" y1="220" x2="450" y2="240" stroke="#666" stroke-width="2" />
  <line x1="510" y1="160" x2="700" y2="240" stroke="#666" stroke-width="2" />
  <line x1="510" y1="160" x2="600" y2="195" stroke="#666" stroke-width="2" stroke-dasharray="5,5" />
  
  <!-- Growth trajectory boxes -->
  <rect x="130" y="240" width="140" height="50" rx="5" ry="5" fill="#bbf" stroke="#333" stroke-width="2" />
  <text x="200" y="265" font-family="Arial, sans-serif" font-size="16" text-anchor="middle" font-weight="bold">Rapid Growth</text>
  <text x="200" y="285" font-family="Arial, sans-serif" font-size="12" text-anchor="middle" font-style="italic">Scaling quickly</text>
  
  <rect x="380" y="240" width="140" height="50" rx="5" ry="5" fill="#bbf" stroke="#333" stroke-width="2" />
  <text x="450" y="265" font-family="Arial, sans-serif" font-size="16" text-anchor="middle" font-weight="bold">Steady Growth</text>
  <text x="450" y="285" font-family="Arial, sans-serif" font-size="12" text-anchor="middle" font-style="italic">Consistent expansion</text>
  
  <rect x="630" y="240" width="140" height="50" rx="5" ry="5" fill="#bbf" stroke="#333" stroke-width="2" />
  <text x="700" y="265" font-family="Arial, sans-serif" font-size="16" text-anchor="middle" font-weight="bold">Plateau</text>
  <text x="700" y="285" font-family="Arial, sans-serif" font-size="12" text-anchor="middle" font-style="italic">Stabilized size</text>
  
  <rect x="580" y="175" width="140" height="40" rx="5" ry="5" fill="#bbf" stroke="#333" stroke-width="2" stroke-dasharray="5,5" />
  <text x="650" y="200" font-family="Arial, sans-serif" font-size="16" text-anchor="middle" font-weight="bold">Contraction</text>
  <text x="650" y="165" font-family="Arial, sans-serif" font-size="10" text-anchor="middle" font-style="italic" fill="#666">Expand this branch in separate view</text>
  
  <!-- Primary Challenge level - Rapid Growth path -->
  <line x1="200" y1="290" x2="200" y2="330" stroke="#666" stroke-width="2" />
  <polygon points="200,330 240,370 200,410 160,370" fill="#f9f" stroke="#333" stroke-width="2" />
  <text x="200" y="360" font-family="Arial, sans-serif" font-size="14" text-anchor="middle">Primary</text>
  <text x="200" y="380" font-family="Arial, sans-serif" font-size="14" text-anchor="middle">Challenge?</text>
  
  <!-- Primary Challenge paths -->
  <line x1="160" y1="370" x2="100" y2="430" stroke="#666" stroke-width="2" />
  <line x1="200" y1="410" x2="200" y2="430" stroke="#666" stroke-width="2" />
  <line x1="240" y1="370" x2="300" y2="430" stroke="#666" stroke-width="2" />
  
  <!-- Challenge boxes -->
  <rect x="30" y="430" width="140" height="40" rx="5" ry="5" fill="#ccf" stroke="#333" stroke-width="1" />
  <text x="100" y="455" font-family="Arial, sans-serif" font-size="14" text-anchor="middle">Coordination Issues</text>
  
  <rect x="130" y="430" width="140" height="40" rx="5" ry="5" fill="#ccf" stroke="#333" stroke-width="1" />
  <text x="200" y="455" font-family="Arial, sans-serif" font-size="14" text-anchor="middle">Process Inconsistencies</text>
  
  <rect x="230" y="430" width="140" height="40" rx="5" ry="5" fill="#ccf" stroke="#333" stroke-width="1" />
  <text x="300" y="455" font-family="Arial, sans-serif" font-size="14" text-anchor="middle">Bureaucratic Friction</text>
  
  <!-- Focus on Process Inconsistencies path for Medium org -->
  <line x1="200" y1="470" x2="200" y2="510" stroke="#666" stroke-width="2" />
  <polygon points="200,510 240,550 200,590 160,550" fill="#f9f" stroke="#333" stroke-width="2" />
  <text x="200" y="555" font-family="Arial, sans-serif" font-size="14" text-anchor="middle">Environment?</text>
  
  <!-- Environment paths -->
  <line x1="160" y1="550" x2="130" y2="610" stroke="#666" stroke-width="2" />
  <line x1="240" y1="550" x2="270" y2="610" stroke="#666" stroke-width="2" />
  
  <!-- Environment boxes -->
  <rect x="90" y="610" width="80" height="30" rx="5" ry="5" fill="#ddf" stroke="#333" stroke-width="1" />
  <text x="130" y="630" font-family="Arial, sans-serif" font-size="12" text-anchor="middle">Stable</text>
  
  <rect x="230" y="610" width="80" height="30" rx="5" ry="5" fill="#ddf" stroke="#333" stroke-width="1" />
  <text x="270" y="630" font-family="Arial, sans-serif" font-size="12" text-anchor="middle">Volatile</text>
  
  <!-- Strategy outcomes -->
  <rect x="70" y="660" width="120" height="80" rx="5" ry="5" fill="#dfd" stroke="#333" stroke-width="1" />
  <text x="130" y="675" font-family="Arial, sans-serif" font-size="12" text-anchor="middle" font-weight="bold">Strategy:</text>
  <text x="130" y="690" font-family="Arial, sans-serif" font-size="12" text-anchor="middle">Regular Model</text>
  <text x="130" y="705" font-family="Arial, sans-serif" font-size="12" text-anchor="middle">Assessment</text>
  <text x="130" y="725" font-family="Arial, sans-serif" font-size="10" text-anchor="middle" fill="blue">⬤ Underfitting Risk</text>
  <text x="130" y="737" font-family="Arial, sans-serif" font-size="10" text-anchor="middle">Effectiveness: ★★★☆☆</text>
  
  <rect x="210" y="660" width="120" height="80" rx="5" ry="5" fill="#dfd" stroke="#333" stroke-width="1" />
  <text x="270" y="675" font-family="Arial, sans-serif" font-size="12" text-anchor="middle" font-weight="bold">Strategy:</text>
  <text x="270" y="690" font-family="Arial, sans-serif" font-size="12" text-anchor="middle">Differentiated</text>
  <text x="270" y="705" font-family="Arial, sans-serif" font-size="12" text-anchor="middle">Formalization</text>
  <text x="270" y="725" font-family="Arial, sans-serif" font-size="10" text-anchor="middle" fill="red">⬤ Overfitting Risk</text>
  <text x="270" y="737" font-family="Arial, sans-serif" font-size="10" text-anchor="middle">Effectiveness: ★★★☆☆</text>
  <text x="270" y="749" font-family="Arial, sans-serif" font-size="10" text-anchor="middle" font-style="italic">Example: Adobe</text>
  
  <!-- Steady Growth path - partial visualization -->
  <line x1="450" y1="290" x2="450" y2="330" stroke="#666" stroke-width="2" />
  <polygon points="450,330 490,370 450,410 410,370" fill="#f9f" stroke="#333" stroke-width="2" />
  <text x="450" y="375" font-family="Arial, sans-serif" font-size="14" text-anchor="middle">Primary</text>
  <text x="450" y="395" font-family="Arial, sans-serif" font-size="14" text-anchor="middle">Challenge?</text>
  
  <!-- Example strategy for Steady Growth path -->
  <line x1="450" y1="410" x2="450" y2="480" stroke="#666" stroke-width="2" stroke-dasharray="5,5" />
  <rect x="390" y="480" width="120" height="80" rx="5" ry="5" fill="#dfd" stroke="#333" stroke-width="1" stroke-dasharray="5,5" />
  <text x="450" y="520" font-family="Arial, sans-serif" font-size="14" text-anchor="middle" font-style="italic">Explore</text>
  <text x="450" y="540" font-family="Arial, sans-serif" font-size="14" text-anchor="middle" font-style="italic">Further</text>
  
  <!-- Legend -->
  <rect x="720" y="590" width="150" height="100" fill="white" stroke="#333" stroke-width="1" rx="5" ry="5" />
  <text x="795" y="610" font-family="Arial, sans-serif" font-size="14" text-anchor="middle" font-weight="bold">Legend</text>
  
  <polygon points="740,630 760,640 740,650 720,640" fill="#f9f" stroke="#333" stroke-width="1" />
  <text x="795" y="640" font-family="Arial, sans-serif" font-size="12" text-anchor="start">Decision Point</text>
  
  <rect x="725" y="655" width="30" height="15" fill="#bbf" stroke="#333" stroke-width="1" />
  <text x="795" y="665" font-family="Arial, sans-serif" font-size="12" text-anchor="start">Option/Category</text>
  
  <rect x="725" y="675" width="30" height="15" fill="#dfd" stroke="#333" stroke-width="1" />
  <text x="795" y="685" font-family="Arial, sans-serif" font-size="12" text-anchor="start">Strategy Outcome</text>
  
  <!-- Risk indicators -->
  <text x="740" y="532" font-family="Arial, sans-serif" font-size="12" text-anchor="start" fill="blue">⬤</text>
  <text x="760" y="532" font-family="Arial, sans-serif" font-size="12" text-anchor="start">Underfitting Risk (Blue)</text>
  
  <text x="740" y="552" font-family="Arial, sans-serif" font-size="12" text-anchor="start" fill="red">⬤</text>
  <text x="760" y="552" font-family="Arial, sans-serif" font-size="12" text-anchor="start">Overfitting Risk (Red)</text>
</svg>
