<?xml version="1.0" encoding="UTF-8"?>
<svg viewBox="0 0 800 600" xmlns="http://www.w3.org/2000/svg">
  <!-- Background and grid -->
  <rect width="800" height="600" fill="white"/>
  <g stroke="#e0e0e0" stroke-width="1">
    <!-- Vertical grid lines -->
    <line x1="150" y1="80" x2="150" y2="520"/>
    <line x1="300" y1="80" x2="300" y2="520"/>
    <line x1="450" y1="80" x2="450" y2="520"/>
    <line x1="600" y1="80" x2="600" y2="520"/>
    <!-- Horizontal grid lines -->
    <line x1="100" y1="520" x2="700" y2="520"/>
    <line x1="100" y1="410" x2="700" y2="410"/>
    <line x1="100" y1="300" x2="700" y2="300"/>
    <line x1="100" y1="190" x2="700" y2="190"/>
    <line x1="100" y1="80" x2="700" y2="80"/>
  </g>

  <!-- Axes -->
  <line x1="100" y1="520" x2="700" y2="520" stroke="black" stroke-width="2"/>
  <line x1="100" y1="80" x2="100" y2="520" stroke="black" stroke-width="2"/>
  
  <!-- X-axis labels -->
  <text x="400" y="570" text-anchor="middle" font-family="Arial" font-size="16" font-weight="bold">Organization Life-Cycle Phase</text>
  <text x="150" y="545" text-anchor="middle" font-family="Arial" font-size="14">Startup</text>
  <text x="300" y="545" text-anchor="middle" font-family="Arial" font-size="14">Growth</text>
  <text x="450" y="545" text-anchor="middle" font-family="Arial" font-size="14">Maturity</text>
  <text x="600" y="545" text-anchor="middle" font-family="Arial" font-size="14">Renewal/Pivot or Decline</text>
  
  <!-- Y-axis labels -->
  <text x="40" y="300" text-anchor="middle" font-family="Arial" font-size="16" font-weight="bold" transform="rotate(-90, 40, 300)">Appropriate Model Complexity</text>
  <text x="85" y="520" text-anchor="end" font-family="Arial" font-size="14">Simple</text>
  <text x="85" y="80" text-anchor="end" font-family="Arial" font-size="14">Complex</text>
  
  <!-- Shaded Areas (drawn first so they're behind the curves and text) -->
  <!-- Overfitting risk zone (above curve) -->
  <path d="M 100,80 L 150,80 Q 200,80 250,80 Q 300,80 350,80 Q 400,80 450,80 Q 500,80 550,80 Q 600,80 650,80 L 700,80 
           L 700,140 Q 675,135 650,130 Q 600,120 550,120 Q 500,120 450,140 Q 430,170 400,190 Q 350,240 300,290 Q 250,350 200,380 Q 150,420 100,460 Z" 
        fill="#ff9966" fill-opacity="0.3"/>
  
  <!-- Underfitting risk zone (below curve) -->
  <path d="M 100,460 Q 150,420 200,380 Q 250,350 300,290 Q 350,240 400,190 Q 430,170 450,140 Q 500,120 550,120 Q 600,120 650,130 Q 675,135 700,140
           L 700,520 L 100,520 Z" 
        fill="#66ccff" fill-opacity="0.3"/>
  
  <!-- Annotations for risk zones (now positioned better to avoid overlap) -->
  <!-- Overfitting Risk Zone annotation -->
  <text x="270" y="120" text-anchor="middle" font-family="Arial" font-size="14" font-weight="bold" fill="#cc3300">Overfitting Risk Zone</text>
  <text x="270" y="140" text-anchor="middle" font-family="Arial" font-size="12" fill="#cc3300">Excessive bureaucracy, rigid processes, slow adaptation</text>
  
  <!-- Underfitting Risk Zone annotation -->
  <text x="410" y="460" text-anchor="middle" font-family="Arial" font-size="14" font-weight="bold" fill="#006699">Underfitting Risk Zone</text>
  <text x="410" y="480" text-anchor="middle" font-family="Arial" font-size="12" fill="#006699">Insufficient coordination, missed complexities, reactive management</text>
  
  <!-- Optimal Curve Paths -->
  <!-- Main curve until maturity point -->
  <path d="M 100,460 Q 150,420 200,380 Q 250,350 300,290 Q 350,240 400,190 Q 430,170 450,140" 
        fill="none" stroke="#4B0082" stroke-width="4"/>
  
  <!-- Renewal path (continues high) -->
  <path d="M 450,140 Q 500,120 550,120 Q 600,120 650,130 Q 675,135 700,140" 
        fill="none" stroke="#4B0082" stroke-width="4" stroke-dasharray="none"/>
  
  <!-- Decline path (decreases) -->
  <path d="M 450,140 Q 500,160 550,200 Q 600,240 650,280 Q 675,300 700,320" 
        fill="none" stroke="#4B0082" stroke-width="4" stroke-dasharray="5,5"/>
  
  <!-- Critical Transition Markers -->
  <circle cx="150" cy="420" r="8" fill="#f0f0f0" stroke="#4B0082" stroke-width="2"/>
  <circle cx="300" cy="290" r="8" fill="#f0f0f0" stroke="#4B0082" stroke-width="2"/>
  <circle cx="450" cy="140" r="8" fill="#f0f0f0" stroke="#4B0082" stroke-width="2"/>
  
  <!-- Critical transition points annotations (repositioned to avoid overlap) -->
  <text x="160" y="395" text-anchor="end" font-family="Arial" font-size="12" font-weight="bold" fill="#4B0082">Initial Structure</text>
  <text x="280" y="265" text-anchor="end" font-family="Arial" font-size="12" font-weight="bold" fill="#4B0082">Process Scale</text>
  <text x="450" y="115" text-anchor="middle" font-family="Arial" font-size="12" font-weight="bold" fill="#4B0082">Strategic Inflection</text>
  
  <!-- Icons for organizational structures -->
  <!-- Startup (flat structure) -->
  <g transform="translate(150, 460)">
    <circle cx="0" cy="0" r="15" fill="#f0f0f0" stroke="#333" stroke-width="1"/>
    <circle cx="-8" cy="-5" r="3" fill="#333"/>
    <circle cx="0" cy="-5" r="3" fill="#333"/>
    <circle cx="8" cy="-5" r="3" fill="#333"/>
    <line x1="-8" y1="5" x2="8" y2="5" stroke="#333" stroke-width="2"/>
  </g>
  
  <!-- Growth (small hierarchy) -->
  <g transform="translate(300, 330)">
    <circle cx="0" cy="-10" r="4" fill="#333"/>
    <line x1="0" y1="-6" x2="0" y2="0" stroke="#333" stroke-width="1.5"/>
    <line x1="0" y1="0" x2="-10" y2="10" stroke="#333" stroke-width="1.5"/>
    <line x1="0" y1="0" x2="10" y2="10" stroke="#333" stroke-width="1.5"/>
    <circle cx="-10" cy="10" r="4" fill="#333"/>
    <circle cx="10" cy="10" r="4" fill="#333"/>
  </g>
  
  <!-- Maturity (complex hierarchy) -->
  <g transform="translate(450, 180)">
    <circle cx="0" cy="-15" r="4" fill="#333"/>
    <line x1="0" y1="-11" x2="0" y2="-5" stroke="#333" stroke-width="1.5"/>
    <line x1="0" y1="-5" x2="-15" y2="5" stroke="#333" stroke-width="1.5"/>
    <line x1="0" y1="-5" x2="15" y2="5" stroke="#333" stroke-width="1.5"/>
    <circle cx="-15" cy="5" r="4" fill="#333"/>
    <circle cx="15" cy="5" r="4" fill="#333"/>
    <line x1="-15" y1="9" x2="-15" y2="15" stroke="#333" stroke-width="1.5"/>
    <line x1="15" y1="9" x2="15" y2="15" stroke="#333" stroke-width="1.5"/>
    <circle cx="-15" cy="15" r="3" fill="#333"/>
    <circle cx="15" cy="15" r="3" fill="#333"/>
  </g>
  
  <!-- Legend (moved to top right with better background for clarity) -->
  <rect x="560" y="85" width="220" height="120" rx="5" ry="5" fill="white" stroke="#ccc" stroke-width="1" fill-opacity="0.9"/>
  <text x="575" y="105" font-family="Arial" font-size="14" font-weight="bold">Legend</text>
  
  <line x1="575" y1="125" x2="615" y2="125" stroke="#4B0082" stroke-width="4"/>
  <text x="625" y="130" font-family="Arial" font-size="12">Optimal Adaptation Curve</text>
  
  <line x1="575" y1="150" x2="615" y2="150" stroke="#4B0082" stroke-width="4" stroke-dasharray="5,5"/>
  <text x="625" y="155" font-family="Arial" font-size="12">Decline Path</text>
  
  <rect x="575" y="165" width="40" height="15" fill="#ff9966" fill-opacity="0.3" stroke="#cc3300" stroke-width="1"/>
  <text x="625" y="175" font-family="Arial" font-size="12">Overfitting Risk Zone</text>
  
  <rect x="575" y="185" width="40" height="15" fill="#66ccff" fill-opacity="0.3" stroke="#006699" stroke-width="1"/>
  <text x="625" y="195" font-family="Arial" font-size="12">Underfitting Risk Zone</text>
  
  <!-- Title -->
  <text x="400" y="40" text-anchor="middle" font-family="Arial" font-size="20" font-weight="bold">Organization Life-Cycle Model Adaptation Curve</text>
</svg>