<svg xmlns="http://www.w3.org/2000/svg" viewBox="0 0 1200 800">
  <!-- Definitions for reuse -->
  <defs>
    <linearGradient id="backgroundGradient" x1="0%" y1="0%" x2="100%" y2="100%">
      <stop offset="0%" style="stop-color:#F8F9F9;stop-opacity:1" />
      <stop offset="100%" style="stop-color:#EBF5FB;stop-opacity:1" />
    </linearGradient>
  </defs>
  
  <!-- Main Background -->
  <rect x="0" y="0" width="1200" height="800" fill="white" />
  
  <!-- Gradient Background -->
  <rect x="50" y="100" width="1100" height="650" rx="20" ry="20" fill="url(#backgroundGradient)" />
  
  <!-- Title -->
  <text x="600" y="60" font-family="Arial, sans-serif" font-size="28" font-weight="bold" text-anchor="middle" fill="#333">
    Organizational Response Patterns by Size: The Underfitting-Overfitting Spectrum
  </text>

  <!-- Organization Size Categories -->
  <!-- Small -->
  <rect x="50" y="120" width="300" height="80" rx="10" ry="10" fill="#2E86C1" opacity="0.2" />
  <text x="200" y="155" font-family="Arial, sans-serif" font-size="22" font-weight="bold" text-anchor="middle" fill="#333">Small (1-50)</text>
  <text x="200" y="180" font-family="Arial, sans-serif" font-size="16" text-anchor="middle" fill="#555">Underfitting Risk Zone</text>
  
  <!-- Medium -->
  <rect x="450" y="120" width="300" height="80" rx="10" ry="10" fill="#F5F5F5" stroke="#AAA" stroke-width="1" />
  <text x="600" y="155" font-family="Arial, sans-serif" font-size="22" font-weight="bold" text-anchor="middle" fill="#333">Medium (50-500)</text>
  <text x="600" y="180" font-family="Arial, sans-serif" font-size="16" text-anchor="middle" fill="#555">Balanced Zone</text>
  
  <!-- Large -->
  <rect x="850" y="120" width="300" height="80" rx="10" ry="10" fill="#E74C3C" opacity="0.2" />
  <text x="1000" y="155" font-family="Arial, sans-serif" font-size="22" font-weight="bold" text-anchor="middle" fill="#333">Large (500+)</text>
  <text x="1000" y="180" font-family="Arial, sans-serif" font-size="16" text-anchor="middle" fill="#555">Overfitting Risk Zone</text>

  <!-- Central Axis -->
  <line x1="100" y1="220" x2="1100" y2="220" stroke="#888" stroke-width="3" />
  <polygon points="1100,220 1090,215 1090,225" fill="#888" />
  
  <!-- Tick Marks -->
  <line x1="200" y1="215" x2="200" y2="225" stroke="#888" stroke-width="2" />
  <line x1="600" y1="215" x2="600" y2="225" stroke="#888" stroke-width="2" />
  <line x1="1000" y1="215" x2="1000" y2="225" stroke="#888" stroke-width="2" />
  
  <!-- Organization Structure Representations -->
  <!-- Small Organization Structure -->
  <!-- CEO -->
  <circle cx="200" cy="340" r="25" fill="#3498DB" />
  <text x="200" y="345" font-family="Arial, sans-serif" font-size="12" font-weight="bold" text-anchor="middle" fill="white">CEO</text>
  
  <!-- Direct Reports -->
  <line x1="140" y1="400" x2="200" y2="365" stroke="#555" stroke-width="2" />
  <line x1="200" y1="400" x2="200" y2="365" stroke="#555" stroke-width="2" />
  <line x1="260" y1="400" x2="200" y2="365" stroke="#555" stroke-width="2" />
  
  <circle cx="140" cy="400" r="20" fill="#5DADE2" />
  <circle cx="200" cy="400" r="20" fill="#5DADE2" />
  <circle cx="260" cy="400" r="20" fill="#5DADE2" />
  
  <!-- Structure Label -->
  <text x="200" y="460" font-family="Arial, sans-serif" font-size="14" font-weight="bold" text-anchor="middle" fill="#333">
    Simple, Flat Structure
  </text>
  <text x="200" y="480" font-family="Arial, sans-serif" font-size="12" text-anchor="middle" fill="#555">
    Few specialized roles
  </text>
  
  <!-- Medium Organization Structure -->
  <!-- CEO -->
  <circle cx="600" cy="310" r="25" fill="#3498DB" />
  <text x="600" y="315" font-family="Arial, sans-serif" font-size="12" font-weight="bold" text-anchor="middle" fill="white">CEO</text>
  
  <!-- Department Heads -->
  <line x1="520" y1="370" x2="600" y2="335" stroke="#555" stroke-width="2" />
  <line x1="600" y1="370" x2="600" y2="335" stroke="#555" stroke-width="2" />
  <line x1="680" y1="370" x2="600" y2="335" stroke="#555" stroke-width="2" />
  
  <circle cx="520" cy="370" r="20" fill="#5DADE2" />
  <text x="520" y="375" font-family="Arial, sans-serif" font-size="10" text-anchor="middle" fill="white">Dept</text>
  
  <circle cx="600" cy="370" r="20" fill="#5DADE2" />
  <text x="600" y="375" font-family="Arial, sans-serif" font-size="10" text-anchor="middle" fill="white">Dept</text>
  
  <circle cx="680" cy="370" r="20" fill="#5DADE2" />
  <text x="680" y="375" font-family="Arial, sans-serif" font-size="10" text-anchor="middle" fill="white">Dept</text>
  
  <!-- Team Members -->
  <line x1="490" y1="420" x2="520" y2="390" stroke="#555" stroke-width="1.5" />
  <line x1="520" y1="420" x2="520" y2="390" stroke="#555" stroke-width="1.5" />
  <line x1="550" y1="420" x2="520" y2="390" stroke="#555" stroke-width="1.5" />
  
  <line x1="570" y1="420" x2="600" y2="390" stroke="#555" stroke-width="1.5" />
  <line x1="600" y1="420" x2="600" y2="390" stroke="#555" stroke-width="1.5" />
  <line x1="630" y1="420" x2="600" y2="390" stroke="#555" stroke-width="1.5" />
  
  <line x1="650" y1="420" x2="680" y2="390" stroke="#555" stroke-width="1.5" />
  <line x1="680" y1="420" x2="680" y2="390" stroke="#555" stroke-width="1.5" />
  <line x1="710" y1="420" x2="680" y2="390" stroke="#555" stroke-width="1.5" />
  
  <circle cx="490" cy="420" r="12" fill="#85C1E9" />
  <circle cx="520" cy="420" r="12" fill="#85C1E9" />
  <circle cx="550" cy="420" r="12" fill="#85C1E9" />
  
  <circle cx="570" cy="420" r="12" fill="#85C1E9" />
  <circle cx="600" cy="420" r="12" fill="#85C1E9" />
  <circle cx="630" cy="420" r="12" fill="#85C1E9" />
  
  <circle cx="650" cy="420" r="12" fill="#85C1E9" />
  <circle cx="680" cy="420" r="12" fill="#85C1E9" />
  <circle cx="710" cy="420" r="12" fill="#85C1E9" />
  
  <!-- Structure Label -->
  <text x="600" y="460" font-family="Arial, sans-serif" font-size="14" font-weight="bold" text-anchor="middle" fill="#333">
    Moderately Structured
  </text>
  <text x="600" y="480" font-family="Arial, sans-serif" font-size="12" text-anchor="middle" fill="#555">
    Emerging departmental specialization
  </text>
  
  <!-- Large Organization Structure -->
  <!-- CEO -->
  <circle cx="1000" cy="280" r="25" fill="#3498DB" />
  <text x="1000" y="285" font-family="Arial, sans-serif" font-size="12" font-weight="bold" text-anchor="middle" fill="white">CEO</text>
  
  <!-- Executive Team -->
  <line x1="900" y1="330" x2="1000" y2="305" stroke="#555" stroke-width="2" />
  <line x1="1000" y1="330" x2="1000" y2="305" stroke="#555" stroke-width="2" />
  <line x1="1100" y1="330" x2="1000" y2="305" stroke="#555" stroke-width="2" />
  
  <circle cx="900" cy="330" r="20" fill="#5DADE2" />
  <text x="900" y="335" font-family="Arial, sans-serif" font-size="10" text-anchor="middle" fill="white">C-Suite</text>
  
  <circle cx="1000" cy="330" r="20" fill="#5DADE2" />
  <text x="1000" y="335" font-family="Arial, sans-serif" font-size="10" text-anchor="middle" fill="white">C-Suite</text>
  
  <circle cx="1100" cy="330" r="20" fill="#5DADE2" />
  <text x="1100" y="335" font-family="Arial, sans-serif" font-size="10" text-anchor="middle" fill="white">C-Suite</text>
  
  <!-- Directors -->
  <line x1="870" y1="380" x2="900" y2="350" stroke="#555" stroke-width="1.5" />
  <line x1="900" y1="380" x2="900" y2="350" stroke="#555" stroke-width="1.5" />
  <line x1="930" y1="380" x2="900" y2="350" stroke="#555" stroke-width="1.5" />
  
  <line x1="970" y1="380" x2="1000" y2="350" stroke="#555" stroke-width="1.5" />
  <line x1="1000" y1="380" x2="1000" y2="350" stroke="#555" stroke-width="1.5" />
  <line x1="1030" y1="380" x2="1000" y2="350" stroke="#555" stroke-width="1.5" />
  
  <line x1="1070" y1="380" x2="1100" y2="350" stroke="#555" stroke-width="1.5" />
  <line x1="1100" y1="380" x2="1100" y2="350" stroke="#555" stroke-width="1.5" />
  <line x1="1130" y1="380" x2="1100" y2="350" stroke="#555" stroke-width="1.5" />
  
  <circle cx="870" cy="380" r="15" fill="#85C1E9" />
  <circle cx="900" cy="380" r="15" fill="#85C1E9" />
  <circle cx="930" cy="380" r="15" fill="#85C1E9" />
  
  <circle cx="970" cy="380" r="15" fill="#85C1E9" />
  <circle cx="1000" cy="380" r="15" fill="#85C1E9" />
  <circle cx="1030" cy="380" r="15" fill="#85C1E9" />
  
  <circle cx="1070" cy="380" r="15" fill="#85C1E9" />
  <circle cx="1100" cy="380" r="15" fill="#85C1E9" />
  <circle cx="1130" cy="380" r="15" fill="#85C1E9" />
  
  <!-- Teams -->
  <circle cx="885" cy="425" r="8" fill="#AED6F1" />
  <circle cx="900" cy="425" r="8" fill="#AED6F1" />
  <circle cx="915" cy="425" r="8" fill="#AED6F1" />
  <line x1="900" y1="410" x2="900" y2="380" stroke="#555" stroke-width="1" />
  
  <circle cx="985" cy="425" r="8" fill="#AED6F1" />
  <circle cx="1000" cy="425" r="8" fill="#AED6F1" />
  <circle cx="1015" cy="425" r="8" fill="#AED6F1" />
  <line x1="1000" y1="410" x2="1000" y2="380" stroke="#555" stroke-width="1" />
  
  <circle cx="1085" cy="425" r="8" fill="#AED6F1" />
  <circle cx="1100" cy="425" r="8" fill="#AED6F1" />
  <circle cx="1115" cy="425" r="8" fill="#AED6F1" />
  <line x1="1100" y1="410" x2="1100" y2="380" stroke="#555" stroke-width="1" />
  
  <!-- Structure Label -->
  <text x="1000" y="460" font-family="Arial, sans-serif" font-size="14" font-weight="bold" text-anchor="middle" fill="#333">
    Complex Hierarchical Structure
  </text>
  <text x="1000" y="480" font-family="Arial, sans-serif" font-size="12" text-anchor="middle" fill="#555">
    Multiple levels and specialized units
  </text>
  
  <!-- Risk Indicators -->
  <!-- Small Organization Risks -->
  <rect x="80" y="500" width="240" height="80" rx="10" ry="10" fill="#D4E6F1" stroke="#3498DB" stroke-width="1" />
  <text x="200" y="520" font-family="Arial, sans-serif" font-size="14" font-weight="bold" text-anchor="middle" fill="#333">Underfitting Risks</text>
  <text x="200" y="540" font-family="Arial, sans-serif" font-size="12" text-anchor="middle" fill="#555">• Missed market opportunities</text>
  <text x="200" y="560" font-family="Arial, sans-serif" font-size="12" text-anchor="middle" fill="#555">• Inadequate coordination</text>
  
  <!-- Medium Organization Risks -->
  <rect x="480" y="500" width="240" height="80" rx="10" ry="10" fill="#EBF5FB" stroke="#85C1E9" stroke-width="1" />
  <text x="600" y="520" font-family="Arial, sans-serif" font-size="14" font-weight="bold" text-anchor="middle" fill="#333">Balanced Approach</text>
  <text x="600" y="540" font-family="Arial, sans-serif" font-size="12" text-anchor="middle" fill="#555">• Moderate formalization</text>
  <text x="600" y="560" font-family="Arial, sans-serif" font-size="12" text-anchor="middle" fill="#555">• Selective specialization</text>
  
  <!-- Large Organization Risks -->
  <rect x="880" y="500" width="240" height="80" rx="10" ry="10" fill="#FADBD8" stroke="#E74C3C" stroke-width="1" />
  <text x="1000" y="520" font-family="Arial, sans-serif" font-size="14" font-weight="bold" text-anchor="middle" fill="#333">Overfitting Risks</text>
  <text x="1000" y="540" font-family="Arial, sans-serif" font-size="12" text-anchor="middle" fill="#555">• Bureaucracy &amp; rigidity</text>
  <text x="1000" y="560" font-family="Arial, sans-serif" font-size="12" text-anchor="middle" fill="#555">• Slow adaptation to change</text>
  
  <!-- Efficiency-Effectiveness Balance -->
  <text x="600" y="610" font-family="Arial, sans-serif" font-size="16" font-weight="bold" text-anchor="middle" fill="#333">
    Efficiency-Effectiveness Balance
  </text>
  
  <!-- Small Organization Scales -->
  <rect x="110" y="650" width="180" height="30" rx="5" ry="5" fill="#D4E6F1" stroke="#3498DB" stroke-width="1" />
  <rect x="110" y="650" width="140" height="30" rx="5" ry="5" fill="#3498DB" />
  <text x="200" y="670" font-family="Arial, sans-serif" font-size="14" font-weight="bold" text-anchor="middle" fill="white">
    High Efficiency
  </text>
  
  <rect x="110" y="690" width="180" height="30" rx="5" ry="5" fill="#D4E6F1" stroke="#3498DB" stroke-width="1" />
  <rect x="110" y="690" width="60" height="30" rx="5" ry="5" fill="#3498DB" />
  <text x="200" y="710" font-family="Arial, sans-serif" font-size="14" font-weight="bold" text-anchor="middle" fill="#333">
    Lower Effectiveness
  </text>
  
  <!-- Medium Organization Scales -->
  <rect x="510" y="650" width="180" height="30" rx="5" ry="5" fill="#EBF5FB" stroke="#85C1E9" stroke-width="1" />
  <rect x="510" y="650" width="90" height="30" rx="5" ry="5" fill="#85C1E9" />
  <text x="600" y="670" font-family="Arial, sans-serif" font-size="14" font-weight="bold" text-anchor="middle" fill="#333">
    Balanced Efficiency
  </text>
  
  <rect x="510" y="690" width="180" height="30" rx="5" ry="5" fill="#EBF5FB" stroke="#85C1E9" stroke-width="1" />
  <rect x="510" y="690" width="90" height="30" rx="5" ry="5" fill="#85C1E9" />
  <text x="600" y="710" font-family="Arial, sans-serif" font-size="14" font-weight="bold" text-anchor="middle" fill="#333">
    Balanced Effectiveness
  </text>
  
  <!-- Large Organization Scales -->
  <rect x="910" y="650" width="180" height="30" rx="5" ry="5" fill="#FADBD8" stroke="#E74C3C" stroke-width="1" />
  <rect x="910" y="650" width="60" height="30" rx="5" ry="5" fill="#E74C3C" />
  <text x="1000" y="670" font-family="Arial, sans-serif" font-size="14" font-weight="bold" text-anchor="middle" fill="#333">
    Lower Efficiency
  </text>
  
  <rect x="910" y="690" width="180" height="30" rx="5" ry="5" fill="#FADBD8" stroke="#E74C3C" stroke-width="1" />
  <rect x="910" y="690" width="140" height="30" rx="5" ry="5" fill="#E74C3C" />
  <text x="1000" y="710" font-family="Arial, sans-serif" font-size="14" font-weight="bold" text-anchor="middle" fill="white">
    High Effectiveness
  </text>
  
  <!-- Adaptation Mechanisms -->
  <!-- Small Organization Adaptations -->
  <circle cx="160" cy="240" r="15" fill="#3498DB" opacity="0.7" />
  <circle cx="200" cy="240" r="15" fill="#3498DB" opacity="0.7" />
  <circle cx="240" cy="240" r="15" fill="#3498DB" opacity="0.7" />
  <line x1="160" y1="240" x2="240" y2="240" stroke="#3498DB" stroke-width="2" />
  
  <text x="200" y="270" font-family="Arial, sans-serif" font-size="12" text-anchor="middle" fill="#333">
    Direct Communication
  </text>
  
  <!-- Medium Organization Adaptations -->
  <circle cx="540" y="225" r="10" fill="#85C1E9" opacity="0.7" />
  <circle cx="600" y="225" r="10" fill="#85C1E9" opacity="0.7" />
  <circle cx="660" y="225" r="10" fill="#85C1E9" opacity="0.7" />
  
  <rect x="570" y="240" width="60" height="20" rx="5" ry="5" fill="#5DADE2" opacity="0.8" />
  
  <circle cx="540" y="270" r="10" fill="#85C1E9" opacity="0.7" />
  <circle cx="600" y="270" r="10" fill="#85C1E9" opacity="0.7" />
  <circle cx="660" y="270" r="10" fill="#85C1E9" opacity="0.7" />
  
  <line x1="540" y1="225" x2="585" y2="240" stroke="#5DADE2" stroke-width="1.5" />
  <line x1="600" y1="225" x2="600" y2="240" stroke="#5DADE2" stroke-width="1.5" />
  <line x1="660" y1="225" x2="615" y2="240" stroke="#5DADE2" stroke-width="1.5" />
  
  <line x1="585" y1="260" x2="540" y2="270" stroke="#5DADE2" stroke-width="1.5" />
  <line x1="600" y1="260" x2="600" y2="270" stroke="#5DADE2" stroke-width="1.5" />
  <line x1="615" y1="260" x2="660" y2="270" stroke="#5DADE2" stroke-width="1.5" />
  
  <text x="600" y="255" font-family="Arial, sans-serif" font-size="12" text-anchor="middle" fill="#333">
    Translation Layers
  </text>
  
  <!-- Large Organization Adaptations -->
  <rect x="930" y="220" width="140" height="40" rx="20" ry="20" fill="#E74C3C" opacity="0.1" stroke="#E74C3C" stroke-width="1" stroke-dasharray="5,3" />
  
  <circle cx="960" cy="240" r="15" fill="#E74C3C" opacity="0.3" />
  <circle cx="1000" cy="240" r="15" fill="#E74C3C" opacity="0.3" />
  <circle cx="1040" cy="240" r="15" fill="#E74C3C" opacity="0.3" />
  
  <text x="1000" y="245" font-family="Arial, sans-serif" font-size="12" text-anchor="middle" fill="#333">
    Innovation Units
  </text>
  
  <!-- Bottom Legend -->
  <text x="600" y="760" font-family="Arial, sans-serif" font-size="12" font-style="italic" text-anchor="middle" fill="#666">
    As organizations grow, they shift from underfitting (missing structure) to overfitting (excessive structure)
  </text>
</svg>