
<?xml version="1.0" encoding="UTF-8"?>
<svg viewBox="0 0 900 700" xmlns="http://www.w3.org/2000/svg">
  <!-- Background and Title -->
  <rect width="900" height="700" fill="#f9f9fa" rx="5" ry="5"/>
  <text x="450" y="40" font-family="Arial, sans-serif" font-size="22" font-weight="bold" text-anchor="middle" fill="#333">Human-AI Team Evolution: Structure, Coordination, and Authority</text>
  
  <!-- Timeline Base -->
  <line x1="50" y1="80" x2="850" y2="80" stroke="#999" stroke-width="2"/>
  <polygon points="855,80 845,75 845,85" fill="#999"/>
  
  <!-- Time Horizon Headers -->
  <g id="time-horizons">
    <!-- Near-term -->
    <rect x="90" y="90" width="220" height="30" rx="5" ry="5" fill="#e6f2ff" stroke="#4d94ff" stroke-width="2"/>
    <text x="200" y="110" font-family="Arial, sans-serif" font-size="16" font-weight="bold" text-anchor="middle" fill="#333">Near-term</text>
    
    
    <!-- Emerging -->
    <rect x="340" y="90" width="220" height="30" rx="5" ry="5" fill="#e6ffe6" stroke="#66cc66" stroke-width="2"/>
    <text x="450" y="110" font-family="Arial, sans-serif" font-size="16" font-weight="bold" text-anchor="middle" fill="#333">Emerging</text>
    
    
    <!-- Long-term -->
    <rect x="590" y="90" width="220" height="30" rx="5" ry="5" fill="#f9e6ff" stroke="#b366ff" stroke-width="2"/>
    <text x="700" y="110" font-family="Arial, sans-serif" font-size="16" font-weight="bold" text-anchor="middle" fill="#333">Long-term</text>
  
  </g>
  
  <!-- Team Structure Section -->
  <g id="team-structure">
    <text x="50" y="180" font-family="Arial, sans-serif" font-size="16" font-weight="bold" fill="#333">Team Structure</text>
    
    <!-- Near-term Structure -->
    <g transform="translate(100, 200)">
      <rect width="200" height="100" rx="5" ry="5" fill="#e6f2ff" stroke="#4d94ff" stroke-width="1" opacity="0.5"/>
      
      <!-- Human Manager -->
      <circle cx="100" cy="30" r="15" fill="#ff9999"/>
      <text x="100" y="35" font-family="Arial, sans-serif" font-size="12" text-anchor="middle" fill="#333">H</text>
      
      <!-- Isolated AI Systems -->
      <circle cx="50" cy="70" r="12" fill="#99ccff"/>
      <text x="50" y="74" font-family="Arial, sans-serif" font-size="10" text-anchor="middle" fill="#333">AI</text>
      
      <circle cx="100" cy="70" r="12" fill="#99ccff"/>
      <text x="100" y="74" font-family="Arial, sans-serif" font-size="10" text-anchor="middle" fill="#333">AI</text>
      
      <circle cx="150" cy="70" r="12" fill="#99ccff"/>
      <text x="150" y="74" font-family="Arial, sans-serif" font-size="10" text-anchor="middle" fill="#333">AI</text>
      
      <!-- Management Lines -->
      <line x1="100" y1="45" x2="50" y2="58" stroke="#333" stroke-width="1"/>
      <line x1="100" y1="45" x2="100" y2="58" stroke="#333" stroke-width="1"/>
      <line x1="100" y1="45" x2="150" y2="58" stroke="#333" stroke-width="1"/>
      
      <text x="100" y="95" font-family="Arial, sans-serif" font-size="10" text-anchor="middle" fill="#333">Isolated AI Systems</text>
    </g>
    
    <!-- Emerging Structure -->
    <g transform="translate(350, 200)">
      <rect width="200" height="100" rx="5" ry="5" fill="#e6ffe6" stroke="#66cc66" stroke-width="1" opacity="0.5"/>
      
      <!-- Human Team Members -->
      <circle cx="60" cy="30" r="15" fill="#ff9999"/>
      <text x="60" y="35" font-family="Arial, sans-serif" font-size="12" text-anchor="middle" fill="#333">H</text>
      
      <circle cx="140" cy="30" r="15" fill="#ff9999"/>
      <text x="140" y="35" font-family="Arial, sans-serif" font-size="12" text-anchor="middle" fill="#333">H</text>
      
      <!-- Connected AI Systems -->
      <circle cx="40" cy="70" r="12" fill="#99ccff"/>
      <text x="40" y="74" font-family="Arial, sans-serif" font-size="10" text-anchor="middle" fill="#333">AI</text>
      
      <circle cx="80" cy="70" r="12" fill="#99ccff"/>
      <text x="80" y="74" font-family="Arial, sans-serif" font-size="10" text-anchor="middle" fill="#333">AI</text>
      
      <circle cx="120" cy="70" r="12" fill="#99ccff"/>
      <text x="120" y="74" font-family="Arial, sans-serif" font-size="10" text-anchor="middle" fill="#333">AI</text>
      
      <circle cx="160" cy="70" r="12" fill="#99ccff"/>
      <text x="160" y="74" font-family="Arial, sans-serif" font-size="10" text-anchor="middle" fill="#333">AI</text>
      
      <!-- Connections -->
      <line x1="60" y1="45" x2="40" y2="58" stroke="#333" stroke-width="1"/>
      <line x1="60" y1="45" x2="80" y2="58" stroke="#333" stroke-width="1"/>
      <line x1="140" y1="45" x2="120" y2="58" stroke="#333" stroke-width="1"/>
      <line x1="140" y1="45" x2="160" y2="58" stroke="#333" stroke-width="1"/>
      
      <!-- AI-AI connections -->
      <line x1="40" y1="70" x2="80" y2="70" stroke="#99ccff" stroke-width="1" stroke-dasharray="3,2"/>
      <line x1="80" y1="70" x2="120" y2="70" stroke="#99ccff" stroke-width="1" stroke-dasharray="3,2"/>
      <line x1="120" y1="70" x2="160" y2="70" stroke="#99ccff" stroke-width="1" stroke-dasharray="3,2"/>
      
      <text x="100" y="95" font-family="Arial, sans-serif" font-size="10" text-anchor="middle" fill="#333">Connected AI Systems</text>
    </g>
    
    <!-- Long-term Structure -->
    <g transform="translate(600, 200)">
      <rect width="200" height="100" rx="5" ry="5" fill="#f9e6ff" stroke="#b366ff" stroke-width="1" opacity="0.5"/>
      
      <!-- Integrated Team -->
      <circle cx="60" cy="30" r="15" fill="#ff9999"/>
      <text x="60" y="35" font-family="Arial, sans-serif" font-size="12" text-anchor="middle" fill="#333">H</text>
      
      <circle cx="100" cy="30" r="15" fill="#ff9999"/>
      <text x="100" y="35" font-family="Arial, sans-serif" font-size="12" text-anchor="middle" fill="#333">H</text>
      
      <circle cx="140" cy="30" r="15" fill="#ff9999"/>
      <text x="140" y="35" font-family="Arial, sans-serif" font-size="12" text-anchor="middle" fill="#333">H</text>
      
      <circle cx="40" cy="60" r="12" fill="#99ccff"/>
      <text x="40" y="64" font-family="Arial, sans-serif" font-size="10" text-anchor="middle" fill="#333">AI</text>
      
      <circle cx="80" cy="60" r="12" fill="#99ccff"/>
      <text x="80" y="64" font-family="Arial, sans-serif" font-size="10" text-anchor="middle" fill="#333">AI</text>
      
      <circle cx="120" cy="60" r="12" fill="#99ccff"/>
      <text x="120" y="64" font-family="Arial, sans-serif" font-size="10" text-anchor="middle" fill="#333">AI</text>
      
      <circle cx="160" cy="60" r="12" fill="#99ccff"/>
      <text x="160" y="64" font-family="Arial, sans-serif" font-size="10" text-anchor="middle" fill="#333">AI</text>
      
      <!-- Complex Network Connections -->
      <path d="M60,45 C60,70 40,70 40,60" stroke="#666" stroke-width="1" fill="none"/>
      <path d="M60,45 C60,65 80,70 80,60" stroke="#666" stroke-width="1" fill="none"/>
      <path d="M100,45 C100,65 80,70 80,60" stroke="#666" stroke-width="1" fill="none"/>
      <path d="M100,45 C100,65 120,70 120,60" stroke="#666" stroke-width="1" fill="none"/>
      <path d="M140,45 C140,65 120,70 120,60" stroke="#666" stroke-width="1" fill="none"/>
      <path d="M140,45 C140,65 160,70 160,60" stroke="#666" stroke-width="1" fill="none"/>
      
      <!-- AI-AI network -->
      <line x1="40" y1="60" x2="80" y2="60" stroke="#99ccff" stroke-width="1"/>
      <line x1="80" y1="60" x2="120" y2="60" stroke="#99ccff" stroke-width="1"/>
      <line x1="120" y1="60" x2="160" y2="60" stroke="#99ccff" stroke-width="1"/>
      <line x1="40" y1="60" x2="120" y2="60" stroke="#99ccff" stroke-width="1" stroke-dasharray="3,2"/>
      <line x1="80" y1="60" x2="160" y2="60" stroke="#99ccff" stroke-width="1" stroke-dasharray="3,2"/>
      
      <!-- Human-Human network -->
      <line x1="60" y1="30" x2="100" y2="30" stroke="#ff9999" stroke-width="1" stroke-dasharray="3,2"/>
      <line x1="100" y1="30" x2="140" y2="30" stroke="#ff9999" stroke-width="1" stroke-dasharray="3,2"/>
      
      <text x="100" y="95" font-family="Arial, sans-serif" font-size="10" text-anchor="middle" fill="#333">Integrated Hybrid Teams</text>
    </g>
  </g>
  
  <!-- Coordination Mechanisms Section -->
  <g id="coordination-mechanisms">
    <text x="50" y="330" font-family="Arial, sans-serif" font-size="16" font-weight="bold" fill="#333">Coordination Mechanisms</text>
    
    <!-- Near-term Coordination -->
    <g transform="translate(100, 350)">
      <rect width="200" height="80" rx="5" ry="5" fill="#e6f2ff" stroke="#4d94ff" stroke-width="1" opacity="0.5"/>
      
      <!-- Human-Mediated Coordination -->
      <circle cx="100" cy="25" r="15" fill="#ff9999"/>
      <text x="100" y="30" font-family="Arial, sans-serif" font-size="12" text-anchor="middle" fill="#333">H</text>
      
      <!-- AI Systems -->
      <circle cx="50" cy="55" r="12" fill="#99ccff"/>
      <text x="50" y="59" font-family="Arial, sans-serif" font-size="10" text-anchor="middle" fill="#333">AI</text>
      
      <circle cx="150" cy="55" r="12" fill="#99ccff"/>
      <text x="150" y="59" font-family="Arial, sans-serif" font-size="10" text-anchor="middle" fill="#333">AI</text>
      
      <!-- Coordination Lines -->
      <line x1="100" y1="40" x2="50" y2="55" stroke="#333" stroke-width="1"/>
      <line x1="100" y1="40" x2="150" y2="55" stroke="#333" stroke-width="1"/>
      
      <text x="100" y="75" font-family="Arial, sans-serif" font-size="10" text-anchor="middle" fill="#333">Human-Mediated</text>
    </g>
    
    <!-- Emerging Coordination -->
    <g transform="translate(350, 350)">
      <rect width="200" height="80" rx="5" ry="5" fill="#e6ffe6" stroke="#66cc66" stroke-width="1" opacity="0.5"/>
      
      <!-- Mixed Coordination -->
      <circle cx="60" cy="25" r="15" fill="#ff9999"/>
      <text x="60" y="30" font-family="Arial, sans-serif" font-size="12" text-anchor="middle" fill="#333">H</text>
      
      <circle cx="140" cy="25" r="15" fill="#ff9999"/>
      <text x="140" y="30" font-family="Arial, sans-serif" font-size="12" text-anchor="middle" fill="#333">H</text>
      
      <circle cx="40" cy="55" r="12" fill="#99ccff"/>
      <text x="40" y="59" font-family="Arial, sans-serif" font-size="10" text-anchor="middle" fill="#333">AI</text>
      
      <circle cx="100" cy="55" r="12" fill="#99ccff"/>
      <text x="100" y="59" font-family="Arial, sans-serif" font-size="10" text-anchor="middle" fill="#333">AI</text>
      
      <circle cx="160" cy="55" r="12" fill="#99ccff"/>
      <text x="160" y="59" font-family="Arial, sans-serif" font-size="10" text-anchor="middle" fill="#333">AI</text>
      
      <!-- Protocol Box -->
      <rect x="80" y="25" width="40" height="15" rx="3" ry="3" fill="#ddf3dd" stroke="#66cc66" stroke-width="1"/>
      <text x="100" y="35" font-family="Arial, sans-serif" font-size="8" text-anchor="middle" fill="#333">Protocol</text>
      
      <!-- Connection Lines -->
      <line x1="60" y1="40" x2="40" y2="55" stroke="#333" stroke-width="1"/>
      <line x1="100" y1="40" x2="100" y2="55" stroke="#333" stroke-width="1"/>
      <line x1="140" y1="40" x2="160" y2="55" stroke="#333" stroke-width="1"/>
      <line x1="40" y1="55" x2="100" y2="55" stroke="#99ccff" stroke-width="1" stroke-dasharray="3,2"/>
      <line x1="100" y1="55" x2="160" y2="55" stroke="#99ccff" stroke-width="1" stroke-dasharray="3,2"/>
      
      <text x="100" y="75" font-family="Arial, sans-serif" font-size="10" text-anchor="middle" fill="#333">Standardized Protocols</text>
    </g>
    
    <!-- Long-term Coordination -->
    <g transform="translate(600, 350)">
      <rect width="200" height="80" rx="5" ry="5" fill="#f9e6ff" stroke="#b366ff" stroke-width="1" opacity="0.5"/>
      
      <!-- Orchestration System -->
      <rect x="55" y="10" width="90" height="20" rx="5" ry="5" fill="#e6ccff" stroke="#b366ff" stroke-width="1"/>
      <text x="100" y="23" font-family="Arial, sans-serif" font-size="8" text-anchor="middle" fill="#333">Orchestration System</text>
      
      <!-- Team Members -->
      <circle cx="40" cy="55" r="12" fill="#ff9999"/>
      <text x="40" y="59" font-family="Arial, sans-serif" font-size="10" text-anchor="middle" fill="#333">H</text>
      
      <circle cx="80" cy="55" r="12" fill="#ff9999"/>
      <text x="80" y="59" font-family="Arial, sans-serif" font-size="10" text-anchor="middle" fill="#333">H</text>
      
      <circle cx="120" cy="55" r="12" fill="#99ccff"/>
      <text x="120" y="59" font-family="Arial, sans-serif" font-size="10" text-anchor="middle" fill="#333">AI</text>
      
      <circle cx="160" cy="55" r="12" fill="#99ccff"/>
      <text x="160" y="59" font-family="Arial, sans-serif" font-size="10" text-anchor="middle" fill="#333">AI</text>
      
      <!-- Connection Lines -->
      <line x1="100" y1="30" x2="40" y2="55" stroke="#b366ff" stroke-width="1"/>
      <line x1="100" y1="30" x2="80" y2="55" stroke="#b366ff" stroke-width="1"/>
      <line x1="100" y1="30" x2="120" y2="55" stroke="#b366ff" stroke-width="1"/>
      <line x1="100" y1="30" x2="160" y2="55" stroke="#b366ff" stroke-width="1"/>
      
      <!-- Network Among Team -->
      <path d="M40,55 C40,65 80,65 80,55" stroke="#666" stroke-width="1" fill="none" stroke-dasharray="2,1"/>
      <path d="M80,55 C80,65 120,65 120,55" stroke="#666" stroke-width="1" fill="none" stroke-dasharray="2,1"/>
      <path d="M120,55 C120,65 160,65 160,55" stroke="#666" stroke-width="1" fill="none" stroke-dasharray="2,1"/>
      
      <text x="100" y="75" font-family="Arial, sans-serif" font-size="10" text-anchor="middle" fill="#333">Dynamic Orchestration</text>
    </g>
  </g>
  
  <!-- Authority Relationships Section -->
  <g id="authority-relationships">
    <text x="50" y="460" font-family="Arial, sans-serif" font-size="16" font-weight="bold" fill="#333">Authority Relationships</text>
    
    <!-- Near-term Authority -->
    <g transform="translate(100, 480)">
      <rect width="200" height="100" rx="5" ry="5" fill="#e6f2ff" stroke="#4d94ff" stroke-width="1" opacity="0.5"/>
      
      <!-- Authority Pyramid -->
      <polygon points="100,20 60,60 140,60" fill="#e6f2ff" stroke="#4d94ff" stroke-width="1"/>
      
      <!-- Members -->
      <circle cx="100" cy="30" r="12" fill="#ff9999"/>
      <text x="100" y="34" font-family="Arial, sans-serif" font-size="10" text-anchor="middle" fill="#333">H</text>
      
      <circle cx="75" cy="55" r="10" fill="#ff9999"/>
      <text x="75" y="58" font-family="Arial, sans-serif" font-size="8" text-anchor="middle" fill="#333">H</text>
      
      <circle cx="125" cy="55" r="10" fill="#ff9999"/>
      <text x="125" y="58" font-family="Arial, sans-serif" font-size="8" text-anchor="middle" fill="#333">H</text>
      
      <circle cx="60" cy="75" r="8" fill="#99ccff"/>
      <text x="60" y="78" font-family="Arial, sans-serif" font-size="6" text-anchor="middle" fill="#333">AI</text>
      
      <circle cx="90" cy="75" r="8" fill="#99ccff"/>
      <text x="90" y="78" font-family="Arial, sans-serif" font-size="6" text-anchor="middle" fill="#333">AI</text>
      
      <circle cx="110" cy="75" r="8" fill="#99ccff"/>
      <text x="110" y="78" font-family="Arial, sans-serif" font-size="6" text-anchor="middle" fill="#333">AI</text>
      
      <circle cx="140" cy="75" r="8" fill="#99ccff"/>
      <text x="140" y="78" font-family="Arial, sans-serif" font-size="6" text-anchor="middle" fill="#333">AI</text>
      
      <text x="100" y="95" font-family="Arial, sans-serif" font-size="10" text-anchor="middle" fill="#333">Clear Human Hierarchy</text>
    </g>
    
    <!-- Emerging Authority -->
    <g transform="translate(350, 480)">
      <rect width="200" height="100" rx="5" ry="5" fill="#e6ffe6" stroke="#66cc66" stroke-width="1" opacity="0.5"/>
      
      <!-- Nuanced Decision Structure -->
      <rect x="50" y="30" width="100" height="40" rx="5" ry="5" fill="#e6ffe6" stroke="#66cc66" stroke-width="1"/>
      
      <!-- Members -->
      <circle cx="70" cy="20" r="12" fill="#ff9999"/>
      <text x="70" y="24" font-family="Arial, sans-serif" font-size="10" text-anchor="middle" fill="#333">H</text>
      
      <circle cx="130" cy="20" r="12" fill="#ff9999"/>
      <text x="130" y="24" font-family="Arial, sans-serif" font-size="10" text-anchor="middle" fill="#333">H</text>
      
      <text x="100" y="40" font-family="Arial, sans-serif" font-size="8" text-anchor="middle" fill="#333">Decision Rights</text>
      <text x="100" y="50" font-family="Arial, sans-serif" font-size="8" text-anchor="middle" fill="#333">Distribution</text>
      
      <circle cx="70" cy="70" r="10" fill="#99ccff"/>
      <text x="70" y="73" font-family="Arial, sans-serif" font-size="8" text-anchor="middle" fill="#333">AI</text>
      
      <circle cx="100" cy="70" r="10" fill="#99ccff"/>
      <text x="100" y="73" font-family="Arial, sans-serif" font-size="8" text-anchor="middle" fill="#333">AI</text>
      
      <circle cx="130" cy="70" r="10" fill="#99ccff"/>
      <text x="130" y="73" font-family="Arial, sans-serif" font-size="8" text-anchor="middle" fill="#333">AI</text>
      
      <!-- Connection Lines with Varied Weight -->
      <line x1="70" y1="32" x2="70" y2="60" stroke="#333" stroke-width="2"/>
      <line x1="100" y1="50" x2="100" y2="60" stroke="#333" stroke-width="1"/>
      <line x1="130" y1="32" x2="130" y2="60" stroke="#333" stroke-width="2"/>
      
      <text x="100" y="95" font-family="Arial, sans-serif" font-size="10" text-anchor="middle" fill="#333">Limited AI Autonomy</text>
    </g>
    
    <!-- Long-term Authority -->
    <g transform="translate(600, 480)">
      <rect width="200" height="100" rx="5" ry="5" fill="#f9e6ff" stroke="#b366ff" stroke-width="1" opacity="0.5"/>
      
      <!-- Governance Framework -->
      <rect x="50" y="15" width="100" height="25" rx="5" ry="5" fill="#e6ccff" stroke="#b366ff" stroke-width="1"/>
      <text x="100" y="30" font-family="Arial, sans-serif" font-size="8" text-anchor="middle" fill="#333">Governance Framework</text>
      
      <!-- Decision Web -->
      <circle cx="60" cy="65" r="12" fill="#ff9999"/>
      <text x="60" y="69" font-family="Arial, sans-serif" font-size="10" text-anchor="middle" fill="#333">H</text>
      
      <circle cx="100" cy="65" r="12" fill="#ff9999"/>
      <text x="100" y="69" font-family="Arial, sans-serif" font-size="10" text-anchor="middle" fill="#333">H</text>
      
      <circle cx="140" cy="65" r="12" fill="#99ccff"/>
      <text x="140" y="69" font-family="Arial, sans-serif" font-size="10" text-anchor="middle" fill="#333">AI</text>
      
      <circle cx="80" cy="85" r="10" fill="#99ccff"/>
      <text x="80" y="88" font-family="Arial, sans-serif" font-size="8" text-anchor="middle" fill="#333">AI</text>
      
      <circle cx="120" cy="85" r="10" fill="#99ccff"/>
      <text x="120" y="88" font-family="Arial, sans-serif" font-size="8" text-anchor="middle" fill="#333">AI</text>
      
      <!-- Governance Connections -->
      <line x1="100" y1="40" x2="60" y2="65" stroke="#b366ff" stroke-width="1"/>
      <line x1="100" y1="40" x2="100" y2="65" stroke="#b366ff" stroke-width="1"/>
      <line x1="100" y1="40" x2="140" y2="65" stroke="#b366ff" stroke-width="1"/>
      <line x1="100" y1="40" x2="80" y2="85" stroke="#b366ff" stroke-width="1"/>
      <line x1="100" y1="40" x2="120" y2="85" stroke="#b366ff" stroke-width="1"/>
      
      <!-- Team Member Connections -->
      <line x1="60" y1="65" x2="100" y2="65" stroke="#666" stroke-width="1" stroke-dasharray="3,1"/>
      <line x1="100" y1="65" x2="140" y2="65" stroke="#666" stroke-width="1" stroke-dasharray="3,1"/>
      <line x1="60" y1="65" x2="80" y2="85" stroke="#666" stroke-width="1" stroke-dasharray="3,1"/>
      <line x1="140" y1="65" x2="120" y2="85" stroke="#666" stroke-width="1" stroke-dasharray="3,1"/>
      <line x1="80" y1="85" x2="120" y2="85" stroke="#666" stroke-width="1" stroke-dasharray="3,1"/>
      
      <text x="100" y="100" font-family="Arial, sans-serif" font-size="10" text-anchor="middle" fill="#333">Balanced Authority</text>
    </g>
  </g>
  
  <!-- Task Allocation Section -->
  <g id="task-allocation">
    <text x="50" y="610" font-family="Arial, sans-serif" font-size="16" font-weight="bold" fill="#333">Task Allocation</text>
    
    <!-- Near-term Tasks -->
    <g transform="translate(100, 630)">
      <rect width="200" height="60" rx="5" ry="5" fill="#e6f2ff" stroke="#4d94ff" stroke-width="1" opacity="0.5"/>
      
      <!-- Task Division -->
      <rect x="30" y="10" width="40" height="30" rx="3" ry="3" fill="#ff9999" fill-opacity="0.3" stroke="#ff9999" stroke-width="1"/>
      <text x="50" y="28" font-family="Arial, sans-serif" font-size="9" text-anchor="middle" fill="#333">Complex</text>
      
      <rect x="80" y="10" width="40" height="30" rx="3" ry="3" fill="#99ccff" fill-opacity="0.3" stroke="#99ccff" stroke-width="1"/>
      <text x="100" y="28" font-family="Arial, sans-serif" font-size="9" text-anchor="middle" fill="#333">Defined</text>
      
      <rect x="130" y="10" width="40" height="30" rx="3" ry="3" fill="#99ccff" fill-opacity="0.3" stroke="#99ccff" stroke-width="1"/>
      <text x="150" y="28" font-family="Arial, sans-serif" font-size="9" text-anchor="middle" fill="#333">Routine</text>
      
      <text x="100" y="55" font-family="Arial, sans-serif" font-size="10" text-anchor="middle" fill="#333">Simple Division</text>
    </g>
    
    <!-- Emerging Tasks -->
    <g transform="translate(350, 630)">
      <rect width="200" height="60" rx="5" ry="5" fill="#e6ffe6" stroke="#66cc66" stroke-width="1" opacity="0.5"/>
      
      <!-- Interconnected Tasks -->
      <rect x="35" y="10" width="35" height="25" rx="3" ry="3" fill="#ff9999" fill-opacity="0.3" stroke="#ff9999" stroke-width="1"/>
      <text x="52" y="25" font-family="Arial, sans-serif" font-size="7" text-anchor="middle" fill="#333">Strategic</text>
      
      <rect x="75" y="10" width="35" height="25" rx="3" ry="3" fill="#ff9999" fill-opacity="0.3" stroke="#ff9999" stroke-width="1"/>
      <text x="92" y="25" font-family="Arial, sans-serif" font-size="7" text-anchor="middle" fill="#333">Creative</text>
      
      <rect x="115" y="10" width="35" height="25" rx="3" ry="3" fill="#99ccff" fill-opacity="0.3" stroke="#99ccff" stroke-width="1"/>
      <text x="132" y="25" font-family="Arial, sans-serif" font-size="7" text-anchor="middle" fill="#333">Complex</text>
      
      <rect x="155" y="10" width="30" height="25" rx="3" ry="3" fill="#99ccff" fill-opacity="0.3" stroke="#99ccff" stroke-width="1"/>
      <text x="170" y="25" font-family="Arial, sans-serif" font-size="7" text-anchor="middle" fill="#333">Routine</text>
      
      <!-- Connecting Lines -->
      <line x1="52" y1="35" x2="92" y2="35" stroke="#666" stroke-width="1" stroke-dasharray="3,1"/>
      <line x1="92" y1="35" x2="132" y2="35" stroke="#666" stroke-width="1" stroke-dasharray="3,1"/>
      <line x1="132" y1="35" x2="170" y2="35" stroke="#666" stroke-width="1" stroke-dasharray="3,1"/>
      
      <text x="100" y="55" font-family="Arial, sans-serif" font-size="10" text-anchor="middle" fill="#333">Interconnected Tasks</text>
    </g>
    
    <!-- Long-term Tasks -->
    <g transform="translate(600, 630)">
      <rect width="200" height="60" rx="5" ry="5" fill="#f9e6ff" stroke="#b366ff" stroke-width="1" opacity="0.5"/>
      
      <!-- Dynamic Allocation System -->
      <circle cx="100" cy="20" r="15" fill="#e6ccff" stroke="#b366ff" stroke-width="1"/>
      <text x="100" y="24" font-family="Arial, sans-serif" font-size="9" text-anchor="middle" fill="#333">Dynamic</text>
      
      <!-- Task Types -->
      <circle cx="55" cy="35" r="10" fill="#ff9999" fill-opacity="0.3" stroke="#ff9999" stroke-width="1"/>
      <text x="55" y="38" font-family="Arial, sans-serif" font-size="7" text-anchor="middle" fill="#333">H</text>
      
      <circle cx="145" cy="35" r="10" fill="#99ccff" fill-opacity="0.3" stroke="#99ccff" stroke-width="1"/>
      <text x="145" y="38" font-family="Arial, sans-serif" font-size="7" text-anchor="middle" fill="#333">AI</text>
      
      <!-- Connecting Lines -->
      <path d="M100,35 C85,35 70,35 65,35" stroke="#b366ff" stroke-width="1" fill="none"/>
      <path d="M100,35 C115,35 130,35 135,35" stroke="#b366ff" stroke-width="1" fill="none"/>
      
      <text x="100" y="55" font-family="Arial, sans-serif" font-size="9" text-anchor="middle" fill="#333">Optimal Complementarity</text>
    </g>
  </g>
  
  <!-- Legend -->
  <g id="legend" transform="translate(775, 130)">
    <rect width="100" height="100" rx="5" ry="5" fill="white" stroke="#ccc" stroke-width="1"/>
    <text x="50" y="20" font-family="Arial, sans-serif" font-size="12" font-weight="bold" text-anchor="middle" fill="#333">Legend</text>
    
    <circle cx="20" cy="35" r="10" fill="#ff9999"/>
    <text x="60" y="40" font-family="Arial, sans-serif" font-size="10" text-anchor="middle" fill="#333">Human</text>
    
    <circle cx="20" cy="60" r="10" fill="#99ccff"/>
    <text x="60" y="65" font-family="Arial, sans-serif" font-size="10" text-anchor="middle" fill="#333">AI System</text>
    
    <rect x="15" y="78" width="10" height="10" fill="#e6ccff" stroke="#b366ff" stroke-width="1"/>
    <text x="65" y="87" font-family="Arial, sans-serif" font-size="10" text-anchor="middle" fill="#333">Orchestration</text>
  </g>
  
</svg>